<?xml version="1.0" encoding="UTF-8" standalone="no"?>
<!-- Created with Inkscape (http://www.inkscape.org/) -->

<svg
   width="30"
   height="30"
   viewBox="0 0 7.9374991 7.9374991"
   version="1.1"
   id="svg1"
   inkscape:version="1.4 (86a8ad7, 2024-10-11)"
   sodipodi:docname="dron_1.svg"
   xmlns:inkscape="http://www.inkscape.org/namespaces/inkscape"
   xmlns:sodipodi="http://sodipodi.sourceforge.net/DTD/sodipodi-0.dtd"
   xmlns="http://www.w3.org/2000/svg"
   xmlns:svg="http://www.w3.org/2000/svg">
  <sodipodi:namedview
     id="namedview1"
     pagecolor="#ffffff"
     bordercolor="#666666"
     borderopacity="1.0"
     inkscape:showpageshadow="2"
     inkscape:pageopacity="0.0"
     inkscape:pagecheckerboard="0"
     inkscape:deskcolor="#d1d1d1"
     inkscape:document-units="px"
     showguides="true"
     showgrid="true"
     inkscape:zoom="18.182247"
     inkscape:cx="16.609608"
     inkscape:cy="9.5422749"
     inkscape:window-width="1920"
     inkscape:window-height="1057"
     inkscape:window-x="1912"
     inkscape:window-y="-8"
     inkscape:window-maximized="1"
     inkscape:current-layer="layer1">
    <sodipodi:guide
       position="8.4666656,0.52916621"
       orientation="1,0"
       id="guide1"
       inkscape:locked="false" />
    <inkscape:grid
       id="grid1"
       units="px"
       originx="0"
       originy="0"
       spacingx="0.26458332"
       spacingy="0.26458334"
       empcolor="#0099e5"
       empopacity="0.30196078"
       color="#0099e5"
       opacity="0.14901961"
       empspacing="5"
       dotted="false"
       gridanglex="30"
       gridanglez="30"
       visible="true" />
  </sodipodi:namedview>
  <defs
     id="defs1" />
  <g
     inkscape:label="Capa 1"
     inkscape:groupmode="layer"
     id="layer1">
    <path
       style="display:inline;fill:#ffffff;fill-opacity:1;stroke-width:0.102492"
       d="m 13.629415,26.755459 c -1.187819,-0.1731 -2.033266,-1.18626 -1.957127,-2.34535 0.02557,-0.38953 0.118801,-0.626 0.609568,-1.54634 0.237711,-0.44578 0.804612,-1.51217 1.259784,-2.369769 0.455167,-0.857587 0.976991,-1.839927 1.159596,-2.182957 0.182612,-0.34304 0.655323,-1.23386 1.050471,-1.97959 0.395148,-0.74574 1.017109,-1.91722 1.382125,-2.60329 0.365023,-0.686079 0.731475,-1.375549 0.814345,-1.532149 0.190468,-0.35993 0.278133,-0.48933 0.466064,-0.6879 0.975962,-1.03123 2.690486,-0.92834 3.555006,0.21334 0.05649,0.0746 0.235899,0.38575 0.398733,0.6915 0.707277,1.328039 1.099145,2.065519 2.190212,4.121879 0.637033,1.20063 1.307778,2.46364 1.490545,2.80668 0.18276,0.34303 0.494223,0.92877 0.69214,1.301636 0.19791,0.372871 0.50272,0.94641 0.677359,1.27453 1.114087,2.0933 1.085973,2.028091 1.105822,2.5649 0.0154,0.4169 -0.03876,0.67134 -0.221849,1.04174 -0.283822,0.57422 -0.81461,1.00368 -1.466522,1.18655 l -0.216937,0.0609 -6.413315,0.004 c -3.542082,0.002 -6.48616,-0.007 -6.57602,-0.02 z m 13.097807,-0.27853 c 0.252039,-0.0648 0.640637,-0.25557 0.834723,-0.40982 0.279506,-0.22214 0.526349,-0.59068 0.645078,-0.96311 0.07214,-0.22632 0.09652,-0.61184 0.0541,-0.85585 -0.05624,-0.32367 0.0013,-0.20864 -1.67546,-3.36094 -0.134847,-0.25355 -0.555953,-1.046736 -0.935783,-1.762636 -1.645988,-3.10233 -2.134853,-4.02311 -2.447571,-4.61 -0.182779,-0.34304 -0.487802,-0.91658 -0.677818,-1.274529 -0.190021,-0.35795 -0.426509,-0.80336 -0.525527,-0.98979 -0.157229,-0.29603 -0.212665,-0.37178 -0.437647,-0.59795 -0.212116,-0.21324 -0.298332,-0.279 -0.48812,-0.3723 -0.333311,-0.16387 -0.591952,-0.22293 -0.976234,-0.22293 -0.395336,0 -0.639777,0.0584 -0.983657,0.23516 -0.199321,0.10243 -0.297063,0.17568 -0.480691,0.36025 -0.250422,0.2517 -0.23753,0.23066 -0.847932,1.38418 -0.421624,0.796759 -1.00328,1.893589 -1.287082,2.427019 -0.119021,0.22372 -0.530776,0.99861 -0.914999,1.72197 -0.822123,1.54777 -2.069197,3.894896 -2.913513,5.483556 -0.330645,0.62214 -0.623547,1.19619 -0.650889,1.27566 -0.263339,0.7654 -0.01088,1.60577 0.639926,2.13001 0.304318,0.24514 0.67589,0.39679 1.073607,0.43817 0.107786,0.0112 3.033155,0.0187 6.500818,0.0165 5.974529,-0.004 6.31479,-0.006 6.494671,-0.0526 z m -11.994074,-1.10236 c -0.711716,-0.18645 -1.210321,-0.81798 -1.209182,-1.53154 6.15e-4,-0.36646 0.07241,-0.55755 0.499459,-1.32876 0.04129,-0.0746 0.495647,-0.92878 1.009666,-1.89824 0.514026,-0.969446 1.349301,-2.543626 1.856176,-3.498166 0.506869,-0.95454 1.12173,-2.11382 1.36636,-2.57618 0.429357,-0.81149 0.452306,-0.84826 0.661723,-1.06046 0.168244,-0.170479 0.263714,-0.242229 0.425351,-0.319679 0.657181,-0.31491 1.425984,-0.19825 1.931377,0.29306 0.185485,0.180319 0.24371,0.274589 0.679733,1.100639 0.346139,0.65578 0.840038,1.58636 1.302511,2.45415 0.182819,0.34304 0.704507,1.32538 1.159311,2.18297 0.454811,0.85759 0.930758,1.754506 1.057667,1.993146 0.12691,0.23863 0.422129,0.79386 0.656035,1.23385 0.233912,0.43998 0.451148,0.87318 0.482755,0.96267 0.078,0.22087 0.08259,0.69003 0.0089,0.90844 -0.190526,0.56454 -0.632024,0.96717 -1.20075,1.09505 -0.17623,0.0396 -0.6948,0.0437 -5.342173,0.0424 -4.978368,-10e-4 -5.153472,-0.003 -5.344905,-0.0534 z m 5.608917,-1.95538 c 0.171072,-0.0512 0.355192,-0.21115 0.444721,-0.38621 0.261327,-0.51098 -0.110782,-1.11053 -0.689823,-1.11143 -0.308744,-5.1e-4 -0.536204,0.14139 -0.676369,0.42187 -0.304951,0.61027 0.262815,1.27311 0.921471,1.07577 z m 0.02783,-2.11411 c 0.05319,-0.0132 0.125952,-0.0552 0.161728,-0.0933 0.06407,-0.0682 0.06799,-0.10427 0.261236,-2.406986 0.107902,-1.28577 0.196693,-2.42318 0.197315,-2.52758 0.0019,-0.32196 -0.159003,-0.57658 -0.467023,-0.73896 -0.128301,-0.0676 -0.167952,-0.0746 -0.426198,-0.0746 -0.246469,0 -0.301134,0.009 -0.406766,0.0639 -0.252344,0.13212 -0.445316,0.38891 -0.476859,0.63456 -0.02174,0.16931 0.386554,4.979906 0.426775,5.028366 0.11717,0.14119 0.427228,0.18987 0.729792,0.11458 z"
       id="path3"
       sodipodi:nodetypes="cssssssssssssssssscccssssssssssssssssssssssssscssssssssssssscsssssssssssssssssss" />
    <g
       id="row1"
       transform="scale(0.06201171)"
       style="fill:#1b7b75;fill-opacity:1">
	<path
   id="icon:4"
   class="st2"
   d="m 63.8,78.2 c -2.5,0 -4.5,2 -4.5,4.4 0,2.5 2,4.4 4.5,4.4 2.5,0 4.6,-2 4.6,-4.4 -0.1,-2.4 -2.1,-4.4 -4.6,-4.4 z m 0,0 c -2.5,0 -4.5,2 -4.5,4.4 0,2.5 2,4.4 4.5,4.4 2.5,0 4.6,-2 4.6,-4.4 -0.1,-2.4 -2.1,-4.4 -4.6,-4.4 z m 0,0 c -2.5,0 -4.5,2 -4.5,4.4 0,2.5 2,4.4 4.5,4.4 2.5,0 4.6,-2 4.6,-4.4 -0.1,-2.4 -2.1,-4.4 -4.6,-4.4 z m 0,0 c -2.5,0 -4.5,2 -4.5,4.4 0,2.5 2,4.4 4.5,4.4 2.5,0 4.6,-2 4.6,-4.4 -0.1,-2.4 -2.1,-4.4 -4.6,-4.4 z m 0,0 c -2.5,0 -4.5,2 -4.5,4.4 0,2.5 2,4.4 4.5,4.4 2.5,0 4.6,-2 4.6,-4.4 -0.1,-2.4 -2.1,-4.4 -4.6,-4.4 z m 0,0 c -2.5,0 -4.5,2 -4.5,4.4 0,2.5 2,4.4 4.5,4.4 2.5,0 4.6,-2 4.6,-4.4 -0.1,-2.4 -2.1,-4.4 -4.6,-4.4 z m 0,0 c -2.5,0 -4.5,2 -4.5,4.4 0,2.5 2,4.4 4.5,4.4 2.5,0 4.6,-2 4.6,-4.4 -0.1,-2.4 -2.1,-4.4 -4.6,-4.4 z M 0,46.4 C 0,49.8 15.3,48 15.3,48 V 45.3 C 15.3,45.2 0,42.6 0,46.4 Z M 21.5,45.2 V 48 c 0,0 15.3,1.8 15.3,-1.6 0,-3.8 -15.3,-1.2 -15.3,-1.2 z m 69.7,1.2 c 0,3.4 15.3,1.6 15.3,1.6 v -2.7 c 0,-0.1 -15.3,-2.7 -15.3,1.1 z m 21.5,-1.2 V 48 c 0,0 15.3,1.8 15.3,-1.6 0,-3.8 -15.3,-1.2 -15.3,-1.2 z m -48.9,33 c -2.5,0 -4.5,2 -4.5,4.4 0,2.5 2,4.4 4.5,4.4 2.5,0 4.6,-2 4.6,-4.4 -0.1,-2.4 -2.1,-4.4 -4.6,-4.4 z m 0,0 c -2.5,0 -4.5,2 -4.5,4.4 0,2.5 2,4.4 4.5,4.4 2.5,0 4.6,-2 4.6,-4.4 -0.1,-2.4 -2.1,-4.4 -4.6,-4.4 z m 56.5,-22.5 c -0.4,-0.4 -0.9,-0.6 -1.4,-0.6 h -3.3 v -0.9 c 0,-2.2 -1.8,-4 -4.1,-4 h -0.3 v -5.4 c 0,-1 -0.9,-1.7 -1.9,-1.6 -0.8,0.1 -1.3,0.9 -1.3,1.7 v 5.3 h -0.3 c -2.2,0 -4.1,1.8 -4.1,4 v 0.9 H 90.9 L 78.7,65 H 76.9 L 72,56.2 C 71.3,54.9 69.9,54.1 68.4,54.1 H 64 v -9.6 c 1.5,-0.4 2.6,-1.8 2.6,-3.4 0,-2 -1.6,-3.6 -3.6,-3.6 -2,0 -3.6,1.6 -3.6,3.6 0,1.6 1.1,3 2.6,3.4 v 9.6 h -3.7 c -1.6,0 -3,0.9 -3.7,2.3 L 50.5,65 H 49 L 36.8,55.1 H 24.4 v -0.9 c 0,-2.2 -1.8,-4 -4.1,-4 H 20 v -5.3 c 0,-0.8 -0.5,-1.5 -1.3,-1.7 -1,-0.2 -1.9,0.6 -1.9,1.6 v 5.4 h -0.3 c -2.2,0 -4.1,1.8 -4.1,4 v 0.9 H 8.8 c -1.1,0 -2,0.9 -2,2 0,0.5 0.2,1 0.6,1.4 0.4,0.4 0.9,0.6 1.4,0.6 h 26.5 l 10.9,8.8 -8.9,19.5 h -3.7 c -0.8,0 -1.5,0.7 -1.5,1.5 0,0.8 0.7,1.5 1.5,1.5 h 8.1 c 0.8,0 1.5,-0.7 1.5,-1.5 0,-0.8 -0.7,-1.5 -1.5,-1.5 H 40.6 L 49,69 h 12.4 v 5.9 H 51 c -1,0 -1.9,0.8 -1.9,1.8 v 11.9 c 0,1 0.8,1.8 1.9,1.8 h 26.2 c 1,0 1.9,-0.8 1.9,-1.9 V 76.7 c 0,-1 -0.8,-1.8 -1.8,-1.8 h -1.5 v -0.1 c 0,-0.7 -0.6,-1.3 -1.3,-1.3 h -1.3 c -0.7,0 -1.3,0.6 -1.3,1.3 v 0.1 H 65.8 V 69 h 12.4 l 8.4,18.4 h -1.3 c -0.8,0 -1.5,0.7 -1.5,1.5 0,0.8 0.7,1.5 1.5,1.5 h 8.1 c 0.8,0 1.5,-0.7 1.5,-1.5 0,-0.8 -0.7,-1.5 -1.5,-1.5 H 89.9 L 81.1,68.2 92.4,59.1 h 26.4 c 1.1,0 2,-0.8 2.1,-1.8 0,-0.7 -0.2,-1.2 -0.6,-1.6 z M 73,77.8 h 2.1 c 0.6,0 1.1,0.5 1.1,1.1 0,0.6 -0.5,1.1 -1.1,1.1 H 73 c -0.6,0 -1.1,-0.5 -1.1,-1.1 0,-0.6 0.5,-1.1 1.1,-1.1 z m -2.7,4.8 c 0,3.5 -2.9,6.4 -6.5,6.4 -3.6,0 -6.5,-2.9 -6.5,-6.4 0,-3.5 2.9,-6.4 6.5,-6.4 3.6,0 6.5,2.9 6.5,6.4 z"
   style="display:none;fill:#1b7b75;fill-opacity:1" />

	<path
   id="icon:3"
   class="st2"
   d="m 18.6,36.4 c -0.6,-0.6 -1.5,-1 -2.5,-1 -1.7,-0.1 -3.2,1.1 -3.6,2.7 h 7.1 c -0.2,-0.6 -0.5,-1.2 -1,-1.7 z m 12.7,3.7 H 1.1 c -0.6,0 -1.1,0.5 -1.1,1.1 0,0.6 0.5,1.1 1.1,1.1 h 30.1 c 0.6,0 1.1,-0.5 1.1,-1.1 0,-0.6 -0.4,-1.1 -1,-1.1 z m 83.1,-3.7 c -0.6,-0.6 -1.5,-1 -2.5,-1 -1.7,-0.1 -3.2,1.1 -3.6,2.7 h 7.1 c -0.2,-0.6 -0.6,-1.2 -1,-1.7 z m 12.5,3.7 H 96.7 c -0.6,0 -1.1,0.5 -1.1,1.1 0,0.6 0.5,1.1 1.1,1.1 h 30.1 c 0.6,0 1.1,-0.5 1.1,-1.1 0,-0.6 -0.4,-1.1 -1,-1.1 z m -8.2,9.1 V 56 c 0,3.8 -3.1,6.8 -7,6.8 -1.9,0 -3.6,-0.8 -4.9,-2 -1.3,-1.2 -2,-2.9 -2,-4.8 V 51.1 H 85.2 l -4.1,8 c 3,3.2 4.8,7.5 4.8,12.2 V 91 c 0,0.9 -0.7,1.5 -1.6,1.5 v 0 c -0.9,0 -1.6,-0.7 -1.6,-1.5 V 86.2 H 81 v -6.7 h 1.9 v -8.3 c 0,-3.5 -1.2,-6.7 -3.2,-9.2 L 78,65.3 c -0.9,1.7 -2.7,2.8 -4.6,2.8 h -22 c -1.9,0 -3.7,-1.1 -4.6,-2.8 L 45.1,62 c -2,2.6 -3.2,5.8 -3.2,9.2 v 8.3 h 1.8 v 6.7 H 41.9 V 91 c 0,0.9 -0.7,1.5 -1.6,1.5 v 0 c -0.9,0 -1.6,-0.7 -1.6,-1.5 V 71.3 c 0,-4.7 1.8,-9 4.8,-12.2 l -4.1,-8 H 23 V 56 c 0,3.8 -3.1,6.8 -6.9,6.8 -1.9,0 -3.7,-0.8 -4.9,-2 -1.3,-1.2 -2,-2.9 -2,-4.8 v -6.8 h 3.3 v -4.7 h 7.3 V 47 H 48.1 V 42.8 H 76.9 V 47 h 31.3 v -2.5 h 7.3 v 4.7 z"
   style="display:none;fill:#1b7b75;fill-opacity:1" />

	<path
   id="icon:2"
   class="st2"
   d="M 64,128 C 28.7,128 0,99.3 0,64 0,28.7 28.7,0 64,0 c 35.3,0 64,28.7 64,64 0,35.3 -28.7,64 -64,64 z M 64,5.7 C 31.9,5.7 5.7,31.9 5.7,64 5.7,96.1 31.8,122.3 64,122.3 96.2,122.3 122.3,96.2 122.3,64 122.3,31.8 96.1,5.7 64,5.7 Z m 0,105.1 C 38.2,110.8 17.2,89.8 17.2,64 h 1.9 c 0,24.8 20.1,44.9 44.9,44.9 z M 110.8,64 h -1.9 C 108.9,39.2 88.8,19.1 64,19.1 v -1.9 c 25.8,0 46.8,21 46.8,46.8 z M 64,101.3 C 43.5,101.3 26.7,84.6 26.7,64 h 1.9 c 0,19.5 15.9,35.3 35.3,35.3 v 2 z M 101.3,64 H 99.4 C 99.4,44.5 83.5,28.7 64.1,28.7 V 26.8 C 84.5,26.7 101.3,43.5 101.3,64 Z M 72.8,70.5 C 76,66.2 75.7,60 71.7,56 67.7,52 61.4,51.7 57,55.1 47.1,29.7 27.2,27.3 27.2,27.3 c 4,15.2 15.8,25.3 27.9,29.8 -3.4,4.4 -3,10.6 1,14.6 4,4 10.3,4.3 14.7,0.9 5,14.9 17.7,24.4 30.1,28 C 93.5,79 79.1,72.4 72.8,70.5 Z"
   style="display:none;fill:#1b7b75;fill-opacity:1" />

	<path
   id="icon:1"
   class="st3"
   d="m 101.6,74.5 c -5.9,0 -11.3,1.9 -15.6,5.2 l -2.4,-2.8 c -6.2,-7.3 -6.2,-18 0,-25.3 l 2.7,-3.1 c 4.3,3.1 9.6,5 15.3,5 14.6,0 26.4,-12 26.4,-26.7 C 128,12 116.2,0 101.6,0 87.1,0 75.2,12 75.2,26.7 c 0,5.3 1.5,10.2 4.1,14.4 L 76,44 c -7.2,6.3 -17.8,6.3 -25,0 L 48.3,41.7 C 51.1,37.4 52.8,32.3 52.8,26.8 52.8,12 41,0 26.4,0 11.9,0 0,12 0,26.7 c 0,14.7 11.9,26.7 26.4,26.7 5.5,0 10.5,-1.7 14.8,-4.6 l 2.3,2.7 c 6.2,7.3 6.2,18 0,25.3 l -2,2.4 C 37.2,76.2 32,74.4 26.4,74.4 11.9,74.5 0,86.5 0,101.3 0,116 11.9,128 26.4,128 41,128 52.8,116 52.8,101.3 52.8,96 51.2,91 48.5,86.8 L 51,84.6 c 7.2,-6.3 17.8,-6.3 25,0 l 3.1,2.7 c -2.5,4.1 -3.9,8.9 -3.9,14 0,14.7 11.9,26.7 26.4,26.7 14.6,0 26.4,-12 26.4,-26.7 0,-14.8 -11.8,-26.8 -26.4,-26.8 z m 0,-69.6 c 11.9,0 21.6,9.8 21.6,21.9 0,12.1 -9.7,21.9 -21.6,21.9 -4.5,0 -8.7,-1.4 -12.2,-3.8 l 8.5,-10 c 0.8,0.2 1.6,0.4 2.4,0.4 4.4,0 8,-3.6 8,-8.1 0,-4.5 -3.6,-8.1 -8,-8.1 -4.4,0 -8,3.6 -8,8.1 0,0.9 0.1,1.7 0.4,2.5 L 83,37.9 C 81.1,34.6 80,30.8 80,26.8 80,14.7 89.7,4.9 101.6,4.9 Z M 44.7,38.4 34.4,29.5 c 0.2,-0.8 0.4,-1.6 0.4,-2.5 0,-4.5 -3.6,-8.1 -8,-8.1 -4.4,0 -8,3.6 -8,8.1 0,4.5 3.6,8.1 8,8.1 0.8,0 1.7,-0.1 2.4,-0.4 L 38,45.2 C 34.7,47.4 30.7,48.7 26.4,48.7 14.5,48.7 4.8,38.9 4.8,26.8 4.8,14.7 14.5,4.9 26.4,4.9 38.3,4.9 48,14.7 48,26.7 48,31 46.8,35 44.7,38.4 Z m 3.3,62.9 c 0,12.1 -9.7,21.9 -21.6,21.9 -11.9,0 -21.6,-9.8 -21.6,-21.9 0,-12.1 9.7,-21.9 21.6,-21.9 4.4,0 8.5,1.3 11.9,3.6 l -9.1,10.8 c -0.8,-0.2 -1.6,-0.4 -2.4,-0.4 -4.4,0 -8,3.6 -8,8.1 0,4.5 3.6,8.1 8,8.1 4.4,0 8,-3.6 8,-8.1 0,-0.9 -0.1,-1.7 -0.4,-2.5 l 10.5,-9.1 c 2,3.3 3.1,7.2 3.1,11.4 z m 53.6,21.8 c -11.9,0 -21.6,-9.8 -21.6,-21.9 0,-3.9 1,-7.6 2.8,-10.8 l 9.9,8.6 c -0.2,0.8 -0.4,1.6 -0.4,2.5 0,4.5 3.6,8.1 8,8.1 4.4,0 8,-3.6 8,-8.1 0,-4.5 -3.6,-8.1 -8,-8.1 -0.8,0 -1.7,0.1 -2.4,0.4 L 89.1,83.4 c 3.5,-2.6 7.8,-4.1 12.5,-4.1 11.9,0 21.6,9.8 21.6,21.9 0,12.1 -9.7,21.9 -21.6,21.9 z"
   style="fill:#1b7b75;fill-opacity:1"
   sodipodi:nodetypes="sccccssssccccsssscccccsssccccsssssssccssssccssccssssccsssscssssccssssccsssccssssccsss" />

</g>
    <path
       id="rect1"
       style="opacity:1;fill:#ff0f00;fill-rule:evenodd;stroke-width:0.87325;stroke-miterlimit:3.4;paint-order:stroke fill markers"
       d="M 3.9653487,0.18917295 4.4964871,1.8480709 3.4342103,1.8626226 Z"
       sodipodi:nodetypes="cccc" />
  </g>
</svg>
