<?xml version="1.0" encoding="UTF-8" standalone="no"?>
<!-- Created with Inkscape (http://www.inkscape.org/) -->

<svg
   width="15"
   height="15"
   viewBox="0 0 3.9687499 3.96875"
   version="1.1"
   id="svg1"
   xml:space="preserve"
   inkscape:version="1.4 (86a8ad7, 2024-10-11)"
   sodipodi:docname="eliminar_ico.svg"
   xmlns:inkscape="http://www.inkscape.org/namespaces/inkscape"
   xmlns:sodipodi="http://sodipodi.sourceforge.net/DTD/sodipodi-0.dtd"
   xmlns="http://www.w3.org/2000/svg"
   xmlns:svg="http://www.w3.org/2000/svg"><sodipodi:namedview
     id="namedview1"
     pagecolor="#ffffff"
     bordercolor="#666666"
     borderopacity="1.0"
     inkscape:showpageshadow="2"
     inkscape:pageopacity="0.0"
     inkscape:pagecheckerboard="0"
     inkscape:deskcolor="#d1d1d1"
     inkscape:document-units="px"
     inkscape:zoom="25.000898"
     inkscape:cx="-0.63997702"
     inkscape:cy="9.2596675"
     inkscape:window-width="1920"
     inkscape:window-height="1057"
     inkscape:window-x="-8"
     inkscape:window-y="-8"
     inkscape:window-maximized="1"
     inkscape:current-layer="layer1" /><defs
     id="defs1" /><g
     inkscape:label="Capa 1"
     inkscape:groupmode="layer"
     id="layer1"><path
       style="display:none;fill:#000000;stroke-width:0.0283437"
       d="M 0.41188575,3.897675 C 0.30597833,3.8746587 0.20618372,3.8063376 0.14350931,3.7139383 0.05172508,3.5786248 0.0411105,3.4132069 0.11463971,3.2640451 0.14118051,3.2102105 0.16838986,3.1817141 0.75020574,2.5984837 L 1.3580462,1.9891672 0.75020574,1.3798507 C 0.16838928,0.79662037 0.14117877,0.76812594 0.11463971,0.71428927 0.04125106,0.56541352 0.0521829,0.39715639 0.14397399,0.26281747 0.2695319,0.07905694 0.50623734,0.0189907 0.70966093,0.11926921 c 0.053835,0.0265408 0.0823312,0.0537501 0.66556087,0.63556603 L 1.9845389,1.3626757 2.5938555,0.75483524 C 3.1770856,0.17301868 3.20558,0.14580818 3.2594169,0.11926921 3.4082925,0.04588046 3.5765491,0.0568124 3.710888,0.14860339 3.8946485,0.27416131 3.9547148,0.51086684 3.8544363,0.71429034 3.8278955,0.76812536 3.8006857,0.79662163 3.2188702,1.3798518 L 2.6110303,1.9891683 3.2188702,2.5984849 C 3.8006874,3.1817151 3.8278978,3.2102095 3.8544363,3.2640463 3.9278256,3.412922 3.9168936,3.5811786 3.8251018,3.7155175 3.6995441,3.899278 3.4628386,3.9593442 3.259415,3.8590663 3.20558,3.8325256 3.1770839,3.8053162 2.5938537,3.2235002 L 1.9845383,2.6156587 1.3752212,3.2234992 C 0.79193258,3.8053746 0.76350214,3.8325228 0.70966035,3.8590579 c -0.0952219,0.046928 -0.19812616,0.060273 -0.2977746,0.038615 z"
       id="path1" /><path
       style="display:inline;fill:#000000;stroke-width:0.0286665"
       d="M 1.3874291,3.8245777 C 1.213264,3.789363 1.0699365,3.6628796 1.0101979,3.4916908 L 0.9920719,3.4397478 0.9897479,2.5385471 0.9874239,1.6373472 0.8267759,1.7903087 C 0.6039962,2.0024341 0.61625839,2.0017497 0.42083778,1.8129692 0.26029049,1.6578759 0.24755578,1.6375257 0.24767196,1.5362968 c 1.162e-4,-0.1012274 0.0105348,-0.1183186 0.16021421,-0.263905 0.0673918,-0.065557 0.12258326,-0.1220255 0.12258326,-0.1254802 0,-0.00349 -0.0343154,-0.040072 -0.0762999,-0.081375 C 0.36583992,0.97862448 0.3448013,0.938656 0.33872054,0.84615774 0.33484746,0.78187567 0.35328335,0.71645759 0.39077486,0.66496223 0.40293636,0.64830035 0.52215775,0.53090938 0.65577158,0.40409966 0.87463207,0.19637045 0.90368797,0.17139617 0.94908067,0.15193433 c 0.044075,-0.0189013 0.059646,-0.0216226 0.12403953,-0.0217487 0.1040774,-2.0244e-4 0.1535292,0.0227571 0.2554379,0.11859964 l 0.074596,0.0701401 0.1198875,-0.11515975 C 1.6721789,0.06050237 1.7067656,0.04087368 1.8094567,0.04120737 1.9125898,0.04154253 1.9402199,0.0570165 2.090643,0.19869807 2.2279052,0.32799039 2.2486108,0.35743008 2.2397026,0.4106784 2.2350526,0.4397458 2.2075556,0.4675453 1.8109052,0.84801005 L 1.3872897,1.254301 h 0.3577882 0.3577882 l 0.00232,-0.1242989 c 0.00232,-0.1103799 0.00465,-0.1276802 0.019443,-0.15448902 0.019676,-0.0352962 0.066385,-0.0777873 0.099391,-0.0904064 0.012781,-0.004894 0.1958776,-0.0559029 0.4069299,-0.11339642 0.4290609,-0.11688156 0.4203929,-0.11563581 0.497297,-0.0714896 0.027189,0.0156238 0.0488,0.0357114 0.064448,0.0600035 l 0.023548,0.0365197 0.00232,1.30656324 c 0.00232,1.2759039 0.00155,1.30791 -0.013169,1.3639954 -0.024944,0.094334 -0.05802,0.1498137 -0.1322904,0.2218423 -0.053293,0.051676 -0.078492,0.069792 -0.1317857,0.094749 -0.1151779,0.053938 -0.094511,0.052655 -0.8372302,0.052121 -0.553875,-3.981e-4 -0.6717175,-0.0023 -0.7170714,-0.011449 z M 2.8268007,3.5906826 c 0.058716,-0.026339 0.1071451,-0.070466 0.1348299,-0.1228085 l 0.022696,-0.042971 0.00232,-0.9739865 0.00232,-0.9739865 H 2.1049808 1.220987 l 0.00232,0.9702767 0.00232,0.9702759 0.017274,0.035837 c 0.035168,0.072936 0.090391,0.1215057 0.1672168,0.1470784 0.037801,0.012591 0.081273,0.01331 0.7069937,0.011723 l 0.6666826,-0.00171 z M 1.5387507,3.311724 C 1.5024987,3.294284 1.4786397,3.25789 1.4727537,3.2111796 c -0.00232,-0.021222 -0.00388,-0.3357899 -0.00232,-0.6990403 0.00232,-0.6488218 0.00232,-0.6609086 0.018126,-0.6861661 0.032534,-0.052989 0.1062543,-0.070659 0.1606247,-0.038485 0.055307,0.03273 0.052286,-0.011768 0.052286,0.763636 v 0.6971961 l -0.017583,0.025212 c -0.020295,0.029075 -0.061195,0.051165 -0.094805,0.051165 -0.012781,0 -0.0354,-0.00586 -0.050272,-0.012977 z m 0.5227276,0.0026 c -0.03114,-0.012999 -0.063751,-0.050905 -0.069406,-0.080686 -0.00232,-0.013147 -0.00388,-0.3317137 -0.00232,-0.707931 0.00232,-0.68211 0.00232,-0.6840914 0.01859,-0.7049806 0.024013,-0.030832 0.062046,-0.049392 0.1012507,-0.049392 0.038731,0 0.066462,0.016113 0.093675,0.054346 l 0.017429,0.024529 v 0.6947175 c 0,0.6622559 -6.738e-4,0.6959319 -0.014408,0.7205806 -0.016809,0.030239 -0.064836,0.059077 -0.098028,0.058839 -0.012781,-9.27e-5 -0.033929,-0.0046 -0.046865,-0.010025 z m 0.5032692,-0.00807 c -0.06135,-0.0352 -0.057632,0.016254 -0.055307,-0.7670648 0.00232,-0.691373 0.00232,-0.6976959 0.018048,-0.718006 0.027034,-0.034659 0.052828,-0.048651 0.090577,-0.0492 0.040203,-5.821e-4 0.077384,0.017181 0.1019401,0.04874 0.016267,0.020903 0.016344,0.022542 0.018358,0.7153908 0.00232,0.689692 0.00232,0.6946594 -0.01402,0.7262554 -0.011697,0.023165 -0.02502,0.035971 -0.049111,0.047101 -0.043224,0.020028 -0.07142,0.019205 -0.1104915,-0.00319 z M 1.8913955,0.32680915 c -0.041519,-0.0398862 -0.075835,-0.0668626 -0.085084,-0.0668626 -0.0103,0 -0.2382879,0.21315415 -0.6726626,0.62885798 C 0.61475557,1.3854011 0.47655603,1.5215451 0.47655603,1.536127 c 0,0.013295 0.0189782,0.036712 0.067779,0.083619 L 0.6121142,1.6849027 1.2865506,1.0392886 1.9609871,0.39367468 Z M 2.9882387,1.0842156 V 0.90666994 l -0.040668,0.0110041 c -0.022387,0.00608 -0.1680301,0.0452992 -0.3236507,0.0872239 l -0.2829525,0.076219 -0.00232,0.08615 -0.00232,0.08615 0.02928,0.00289 c 0.016111,0.00163 0.1627471,0.00349 0.3258352,0.00415 l 0.296516,0.00126 z M 0.97272967,0.73098316 1.2401355,0.47477657 1.1777788,0.41612261 C 1.1139503,0.35606718 1.0895421,0.34368386 1.052159,0.35231511 1.0381384,0.35557778 0.95188477,0.43280378 0.80021457,0.57796974 L 0.56958764,0.79870366 v 0.032078 c 0,0.0301352 0.003876,0.0358301 0.0633637,0.0942453 0.0348575,0.0341913 0.0653777,0.0621687 0.0678567,0.0621687 0.002319,0 0.12481413,-0.11529248 0.27188313,-0.25620658 z"
       id="path2" /></g></svg>
