<?xml version="1.0" encoding="UTF-8" standalone="no"?>
<!-- Created with Inkscape (http://www.inkscape.org/) -->

<svg
   width="65"
   height="65"
   viewBox="0 0 17.197916 17.197917"
   version="1.1"
   id="svg1"
   inkscape:version="1.3-beta (cedbd6c6ff, 2023-05-28)"
   sodipodi:docname="icon_adv.svg"
   xmlns:inkscape="http://www.inkscape.org/namespaces/inkscape"
   xmlns:sodipodi="http://sodipodi.sourceforge.net/DTD/sodipodi-0.dtd"
   xmlns="http://www.w3.org/2000/svg"
   xmlns:svg="http://www.w3.org/2000/svg">
  <sodipodi:namedview
     id="namedview1"
     pagecolor="#ffffff"
     bordercolor="#666666"
     borderopacity="1.0"
     inkscape:showpageshadow="2"
     inkscape:pageopacity="0.0"
     inkscape:pagecheckerboard="0"
     inkscape:deskcolor="#d1d1d1"
     inkscape:document-units="px"
     showguides="true"
     showgrid="true"
     inkscape:zoom="6.4283951"
     inkscape:cx="8.8669099"
     inkscape:cy="40.678894"
     inkscape:window-width="1920"
     inkscape:window-height="1057"
     inkscape:window-x="-8"
     inkscape:window-y="-8"
     inkscape:window-maximized="1"
     inkscape:current-layer="layer1">
    <sodipodi:guide
       position="8.4666665,8.4666662"
       orientation="1,0"
       id="guide1"
       inkscape:locked="false" />
    <inkscape:grid
       id="grid1"
       units="px"
       originx="0"
       originy="0"
       spacingx="0.26458332"
       spacingy="0.26458334"
       empcolor="#0099e5"
       empopacity="0.30196078"
       color="#0099e5"
       opacity="0.14901961"
       empspacing="5"
       dotted="false"
       gridanglex="30"
       gridanglez="30"
       visible="true" />
    <sodipodi:guide
       position="8.4666665,8.4666662"
       orientation="0,-1"
       id="guide2"
       inkscape:locked="false" />
  </sodipodi:namedview>
  <defs
     id="defs1" />
  <g
     inkscape:label="Capa 1"
     inkscape:groupmode="layer"
     id="layer1">
    <path
       style="display:inline;fill:#ffffff;fill-opacity:1;stroke-width:0.102492"
       d="m 2.105026,16.506985 c -1.18781897,-0.1731 -2.03326597,-1.18626 -1.95712697,-2.34535 0.02557,-0.38953 0.118801,-0.626 0.609568,-1.54634 0.237711,-0.44578 0.80461197,-1.51217 1.25978397,-2.369769 0.455167,-0.8575869 0.976991,-1.8399269 1.159596,-2.1829569 0.182612,-0.34304 0.655323,-1.23386 1.050471,-1.97959 0.395148,-0.74574 1.017109,-1.91722 1.382125,-2.60329 0.365023,-0.6860799 0.731475,-1.3755499 0.814345,-1.5321499 0.190468,-0.35993 0.278133,-0.48933 0.466064,-0.6878999 0.975962,-1.03122967 2.690486,-0.92833967 3.555006,0.2133399 0.05649,0.0746 0.235899,0.38575 0.398733,0.6915 0.707277,1.3280399 1.099145,2.0655199 2.190212,4.1218799 0.637033,1.20063 1.307778,2.46364 1.490545,2.80668 0.18276,0.34303 0.494223,0.9287699 0.69214,1.3016359 0.19791,0.372871 0.50272,0.94641 0.677359,1.27453 1.114087,2.0933 1.085973,2.028091 1.105822,2.5649 0.0154,0.4169 -0.03876,0.67134 -0.221849,1.04174 -0.283822,0.57422 -0.81461,1.00368 -1.466522,1.18655 l -0.216937,0.0609 -6.413315,0.004 c -3.542082,0.002 -6.48616,-0.007 -6.57602,-0.02 z m 13.097807,-0.27853 c 0.252039,-0.0648 0.640637,-0.25557 0.834723,-0.40982 0.279506,-0.22214 0.526349,-0.59068 0.645078,-0.96311 0.07214,-0.22632 0.09652,-0.61184 0.0541,-0.85585 -0.05624,-0.32367 0.0013,-0.20864 -1.67546,-3.36094 -0.134847,-0.25355 -0.555953,-1.0467359 -0.935783,-1.7626359 -1.645988,-3.10233 -2.134853,-4.02311 -2.447571,-4.61 -0.182779,-0.34304 -0.487802,-0.91658 -0.677818,-1.2745299 -0.190021,-0.35795 -0.426509,-0.80336 -0.525527,-0.98979 -0.157229,-0.29603 -0.212665,-0.37178 -0.437647,-0.59795 C 9.824812,1.1905893 9.738596,1.1248295 9.548808,1.0315296 9.215497,0.86765963 8.956856,0.80859963 8.572574,0.80859963 c -0.395336,0 -0.639777,0.0584 -0.983657,0.23515997 -0.199321,0.1024298 -0.297063,0.1756797 -0.480691,0.3602496 -0.250422,0.2517 -0.23753,0.23066 -0.847932,1.38418 -0.421624,0.7967599 -1.00328,1.8935899 -1.287082,2.4270199 -0.119021,0.22372 -0.530776,0.99861 -0.914999,1.72197 -0.822123,1.54777 -2.069197,3.8948959 -2.913513,5.4835559 -0.33064497,0.62214 -0.62354697,1.19619 -0.65088897,1.27566 -0.263339,0.7654 -0.01088,1.60577 0.63992597,2.13001 0.304318,0.24514 0.67589,0.39679 1.073607,0.43817 0.107786,0.0112 3.033155,0.0187 6.500818,0.0165 5.974529,-0.004 6.31479,-0.006 6.494671,-0.0526 z M 3.208759,15.126095 c -0.711716,-0.18645 -1.210321,-0.81798 -1.209182,-1.53154 6.15e-4,-0.36646 0.07241,-0.55755 0.499459,-1.32876 0.04129,-0.0746 0.495647,-0.92878 1.009666,-1.89824 0.514026,-0.9694459 1.349301,-2.5436259 1.856176,-3.4981659 0.506869,-0.95454 1.12173,-2.11382 1.36636,-2.57618 0.429357,-0.81149 0.452306,-0.84826 0.661723,-1.06046 0.168244,-0.1704799 0.263714,-0.2422299 0.425351,-0.3196799 0.657181,-0.31491 1.425984,-0.19825 1.931377,0.29306 0.185485,0.1803199 0.24371,0.2745899 0.679733,1.1006399 0.346139,0.65578 0.840038,1.58636 1.302511,2.45415 0.182819,0.34304 0.704507,1.32538 1.159311,2.18297 0.454811,0.85759 0.930758,1.7545059 1.057667,1.9931459 0.12691,0.23863 0.422129,0.79386 0.656035,1.23385 0.233912,0.43998 0.451148,0.87318 0.482755,0.96267 0.078,0.22087 0.08259,0.69003 0.0089,0.90844 -0.190526,0.56454 -0.632024,0.96717 -1.20075,1.09505 -0.17623,0.0396 -0.6948,0.0437 -5.342173,0.0424 -4.978368,-10e-4 -5.153472,-0.003 -5.344905,-0.0534 z m 5.608917,-1.95538 c 0.171072,-0.0512 0.355192,-0.21115 0.444721,-0.38621 0.261327,-0.51098 -0.110782,-1.11053 -0.689823,-1.11143 -0.308744,-5.1e-4 -0.536204,0.14139 -0.676369,0.42187 -0.304951,0.61027 0.262815,1.27311 0.921471,1.07577 z m 0.02783,-2.11411 c 0.05319,-0.0132 0.125952,-0.0552 0.161728,-0.0933 0.06407,-0.0682 0.06799,-0.10427 0.261236,-2.4069859 0.107902,-1.28577 0.196693,-2.42318 0.197315,-2.52758 0.0019,-0.32196 -0.159003,-0.57658 -0.467023,-0.73896 -0.128301,-0.0676 -0.167952,-0.0746 -0.426198,-0.0746 -0.246469,0 -0.301134,0.009 -0.406766,0.0639 -0.252344,0.13212 -0.445316,0.38891 -0.476859,0.63456 -0.02174,0.16931 0.386554,4.9799059 0.426775,5.0283659 0.11717,0.14119 0.427228,0.18987 0.729792,0.11458 z"
       id="path3"
       sodipodi:nodetypes="cssssssssssssssssscccssssssssssssssssssssssssscssssssssssssscsssssssssssssssssss" />
  </g>
</svg>
