<?xml version="1.0" encoding="UTF-8" standalone="no"?>
<!-- Created with Inkscape (http://www.inkscape.org/) -->

<svg
   version="1.1"
   id="svg1"
   width="66.145836mm"
   height="66.145836mm"
   viewBox="0 0 250.00001 250.00001"
   sodipodi:docname="joystick_background.svg"
   inkscape:version="1.3-beta (cedbd6c6ff, 2023-05-28)"
   xml:space="preserve"
   xmlns:inkscape="http://www.inkscape.org/namespaces/inkscape"
   xmlns:sodipodi="http://sodipodi.sourceforge.net/DTD/sodipodi-0.dtd"
   xmlns="http://www.w3.org/2000/svg"
   xmlns:svg="http://www.w3.org/2000/svg"><defs
     id="defs1"><inkscape:path-effect
       effect="powerstroke"
       id="path-effect7"
       is_visible="true"
       lpeversion="1.3"
       scale_width="1"
       interpolator_type="CentripetalCatmullRom"
       interpolator_beta="0.75"
       start_linecap_type="round"
       end_linecap_type="round"
       offset_points="0.87048882,7.5"
       linejoin_type="spiro"
       miter_limit="4"
       not_jump="true"
       sort_points="true"
       message="&lt;b&gt;Ctrl + click&lt;/b&gt; on existing node and move it" /><inkscape:path-effect
       effect="simplify"
       id="path-effect6"
       is_visible="true"
       lpeversion="1.3"
       threshold="0.012"
       steps="1"
       smooth_angles="0"
       helper_size="0"
       simplify_individual_paths="false"
       simplify_just_coalesce="false"
       step="1" /><inkscape:path-effect
       effect="powerstroke"
       id="path-effect5"
       is_visible="true"
       lpeversion="1.3"
       scale_width="1"
       interpolator_type="CentripetalCatmullRom"
       interpolator_beta="0.75"
       start_linecap_type="round"
       end_linecap_type="round"
       offset_points="0.95458691,7.5"
       linejoin_type="spiro"
       miter_limit="4"
       not_jump="true"
       sort_points="true"
       message="&lt;b&gt;Ctrl + click&lt;/b&gt; on existing node and move it" /><inkscape:path-effect
       effect="simplify"
       id="path-effect4"
       is_visible="true"
       lpeversion="1.3"
       threshold="0.012"
       steps="1"
       smooth_angles="0"
       helper_size="0"
       simplify_individual_paths="false"
       simplify_just_coalesce="false"
       step="1" /><inkscape:path-effect
       effect="fillet_chamfer"
       id="path-effect2"
       is_visible="true"
       lpeversion="1"
       nodesatellites_param="F,0,0,1,0,0,0,1 @ F,0,0,1,0,0,0,1 @ F,0,0,1,0,0,0,1 @ F,0,0,1,0,0,0,1"
       radius="0"
       unit="px"
       method="auto"
       mode="F"
       chamfer_steps="1"
       flexible="false"
       use_knot_distance="true"
       apply_no_radius="true"
       apply_with_radius="true"
       only_selected="false"
       hide_knots="false" /></defs><sodipodi:namedview
     id="namedview1"
     pagecolor="#ffffff"
     bordercolor="#666666"
     borderopacity="1.0"
     inkscape:showpageshadow="2"
     inkscape:pageopacity="0.0"
     inkscape:pagecheckerboard="0"
     inkscape:deskcolor="#d1d1d1"
     inkscape:zoom="2.8284271"
     inkscape:cx="175.71604"
     inkscape:cy="94.221979"
     inkscape:window-width="1920"
     inkscape:window-height="1057"
     inkscape:window-x="-8"
     inkscape:window-y="-8"
     inkscape:window-maximized="1"
     inkscape:current-layer="g1"
     showguides="true"
     inkscape:document-units="mm"><sodipodi:guide
       position="12,250"
       orientation="1,0"
       id="guide2"
       inkscape:locked="false" /><sodipodi:guide
       position="45.999999,239.75"
       orientation="0,-1"
       id="guide3"
       inkscape:locked="false" /></sodipodi:namedview><g
     inkscape:groupmode="layer"
     inkscape:label="Image"
     id="g1"
     style="display:inline"><path
       style="display:none;fill:none;stroke:#0037ff;stroke-width:5.329;stroke-linecap:square;stroke-linejoin:round;stroke-miterlimit:9.8;stroke-dasharray:none;stroke-dashoffset:0.75;stroke-opacity:1;paint-order:stroke markers fill"
       id="path1"
       sodipodi:type="arc"
       sodipodi:cx="125"
       sodipodi:cy="125"
       sodipodi:rx="121.83553"
       sodipodi:ry="121.83553"
       sodipodi:start="0"
       sodipodi:end="6.2830895"
       sodipodi:arc-type="slice"
       d="M 246.83553,125 A 121.83553,121.83553 0 0 1 125.00292,246.83553 121.83553,121.83553 0 0 1 3.164467,125.00584 121.83553,121.83553 0 0 1 124.99125,3.1644672 121.83553,121.83553 0 0 1 246.83553,124.98833 L 125,125 Z" /><path
       style="display:inline;fill:#031116;fill-opacity:1;fill-rule:evenodd;stroke-width:2.5671"
       id="path3"
       sodipodi:type="arc"
       sodipodi:cx="125"
       sodipodi:cy="125"
       sodipodi:rx="124"
       sodipodi:ry="124"
       sodipodi:start="2.9491374"
       sodipodi:end="2.9438702"
       sodipodi:open="true"
       sodipodi:arc-type="arc"
       d="M 3.2893402,148.7174 A 124,124 0 0 1 101.12235,3.3206768 124,124 0 0 1 246.64778,100.96214 124,124 0 0 1 149.19802,246.61602 124,124 0 0 1 3.4159522,149.35815" /><path
       style="display:inline;fill:none;fill-rule:evenodd;stroke:#61bdb6;stroke-width:3.102;stroke-dasharray:none;stroke-opacity:1"
       id="path4"
       sodipodi:type="arc"
       sodipodi:cx="124.99984"
       sodipodi:cy="124.99984"
       sodipodi:rx="118.22765"
       sodipodi:ry="118.22724"
       sodipodi:start="2.9491352"
       sodipodi:end="2.9438702"
       sodipodi:open="true"
       sodipodi:arc-type="arc"
       d="M 8.9550047,147.61335 A 118.22765,118.22724 0 0 1 102.23353,8.9852746 118.22765,118.22724 0 0 1 240.98474,102.08092 118.22765,118.22724 0 0 1 148.07148,240.95407 118.22765,118.22724 0 0 1 9.0756731,148.22401" /><text
       xml:space="preserve"
       style="font-style:normal;font-weight:normal;font-size:40px;line-height:1.25;font-family:sans-serif;display:none;fill:#61bdb6;fill-opacity:1;stroke:none"
       x="-41.21875"
       y="137.53906"
       id="text4"
       transform="rotate(-90)"><tspan
         sodipodi:role="line"
         id="tspan4"
         x="-41.21875"
         y="137.53906">&gt;</tspan></text><text
       xml:space="preserve"
       style="font-style:normal;font-weight:normal;font-size:40px;line-height:1.25;font-family:sans-serif;display:none;fill:#61bdb6;fill-opacity:1;stroke:none"
       x="206.24219"
       y="137.53906"
       id="text4-5"><tspan
         sodipodi:role="line"
         id="tspan4-5"
         x="0"
         y="0">&gt;</tspan></text><text
       xml:space="preserve"
       style="font-style:normal;font-weight:normal;font-size:40px;line-height:1.25;font-family:sans-serif;display:none;fill:#61bdb6;fill-opacity:1;stroke:none"
       x="206.24219"
       y="-112.46094"
       id="text4-5-9"
       transform="rotate(90)"><tspan
         sodipodi:role="line"
         id="tspan4-5-4"
         x="206.24219"
         y="-112.46094">&gt;</tspan></text><text
       xml:space="preserve"
       style="font-style:normal;font-weight:normal;font-size:40px;line-height:1.25;font-family:sans-serif;display:none;fill:#61bdb6;fill-opacity:1;stroke:none"
       x="-41.257812"
       y="-112.46093"
       id="text4-5-9-9"
       transform="scale(-1)"><tspan
         sodipodi:role="line"
         id="tspan4-5-4-6"
         x="-41.257812"
         y="-112.46093">&gt;</tspan></text><path
       style="fill:none;fill-opacity:1;stroke:#c75805;stroke-width:3.053;stroke-dasharray:none;stroke-opacity:1"
       d="m 132.77265,28.093543 c 4.26328,7.986523 7.7593,14.543169 7.76892,14.570315 0.0161,0.04557 -1.19338,0.0494 -15.54161,0.0494 -14.34821,0 -15.55773,-0.0044 -15.5416,-0.0494 0.0389,-0.109631 15.5219,-29.091279 15.5416,-29.091279 0.0117,0 3.5094,6.534429 7.77269,14.520964 z"
       id="path2" /><path
       style="display:inline;fill:none;fill-opacity:1;stroke:#c75805;stroke-width:3.053;stroke-dasharray:none;stroke-opacity:1"
       d="m 27.527796,117.22729 c 7.98652,-4.26328 14.54317,-7.7593 14.57031,-7.76892 0.0456,-0.0161 0.0494,1.19338 0.0494,15.54161 0,14.34821 -0.004,15.55773 -0.0494,15.5416 -0.10963,-0.0389 -29.09127,-15.5219 -29.09127,-15.5416 0,-0.0117 6.53443,-3.5094 14.52096,-7.77269 z"
       id="path2-7" /><path
       style="display:inline;fill:none;fill-opacity:1;stroke:#c75805;stroke-width:3.053;stroke-dasharray:none;stroke-opacity:1"
       d="m 117.22724,223.14156 c -4.26328,-7.98652 -7.7593,-14.54317 -7.76892,-14.57031 -0.0161,-0.0456 1.19338,-0.0494 15.54161,-0.0494 14.34821,0 15.55773,0.004 15.5416,0.0494 -0.0389,0.10963 -15.5219,29.09127 -15.5416,29.09127 -0.0117,0 -3.5094,-6.53443 -7.77269,-14.52096 z"
       id="path2-7-6" /><path
       style="display:inline;fill:none;fill-opacity:1;stroke:#c75805;stroke-width:3.053;stroke-dasharray:none;stroke-dashoffset:0;stroke-opacity:1"
       d="m 221.3738,132.77271 c -7.98652,4.26328 -14.54317,7.7593 -14.57031,7.76892 -0.0456,0.0161 -0.0494,-1.19338 -0.0494,-15.54161 0,-14.34821 0.004,-15.55773 0.0494,-15.5416 0.10963,0.0389 29.09127,15.5219 29.09127,15.5416 0,0.0117 -6.53443,3.5094 -14.52096,7.77269 z"
       id="path2-7-6-5" /></g></svg>
