<?xml version="1.0" encoding="UTF-8" standalone="no"?>
<!-- Created with Inkscape (http://www.inkscape.org/) -->

<svg
   width="22"
   height="22"
   viewBox="0 0 5.8208332 5.8208333"
   version="1.1"
   id="svg1"
   xml:space="preserve"
   inkscape:version="1.4 (86a8ad7, 2024-10-11)"
   sodipodi:docname="marker.svg"
   xmlns:inkscape="http://www.inkscape.org/namespaces/inkscape"
   xmlns:sodipodi="http://sodipodi.sourceforge.net/DTD/sodipodi-0.dtd"
   xmlns="http://www.w3.org/2000/svg"
   xmlns:svg="http://www.w3.org/2000/svg"><sodipodi:namedview
     id="namedview1"
     pagecolor="#ffffff"
     bordercolor="#666666"
     borderopacity="1.0"
     inkscape:showpageshadow="2"
     inkscape:pageopacity="0.0"
     inkscape:pagecheckerboard="0"
     inkscape:deskcolor="#d1d1d1"
     inkscape:document-units="px"
     showguides="true"
     inkscape:zoom="17.678304"
     inkscape:cx="11.03047"
     inkscape:cy="13.943645"
     inkscape:window-width="1920"
     inkscape:window-height="1057"
     inkscape:window-x="-8"
     inkscape:window-y="-8"
     inkscape:window-maximized="1"
     inkscape:current-layer="layer1"><sodipodi:guide
       position="2.9103121,11.107018"
       orientation="1,0"
       id="guide1"
       inkscape:locked="false" /><sodipodi:guide
       position="-8.450488,2.9091983"
       orientation="0,-1"
       id="guide2"
       inkscape:locked="false" /></sodipodi:namedview><defs
     id="defs1" /><g
     inkscape:label="Capa 1"
     inkscape:groupmode="layer"
     id="layer1"><path
       style="fill:#fd1a1a;fill-opacity:1;stroke-width:0.043476"
       d="M 2.7805854,3.9753826 C 2.0037884,3.1292289 1.5380602,2.3966175 1.4186162,1.8329434 1.392898,1.7115677 1.3925145,1.4659895 1.4178379,1.3262174 1.5321253,0.69514618 2.0413438,0.20355364 2.6791058,0.1086065 c 0.1328578,-0.01978067 0.3580916,-0.01484385 0.4932949,0.010813 0.5099401,0.0967595 0.9384541,0.45437176 1.1192024,0.93401923 0.063913,0.1696071 0.089547,0.294268 0.09767,0.4749858 0.00603,0.1341377 0.0034,0.1738051 -0.019153,0.2875756 C 4.2788241,2.2768559 3.9586996,2.844857 3.4190065,3.5035782 3.2183163,3.7485292 2.9147427,4.0817865 2.892299,4.0817865 c -0.00771,0 -0.05798,-0.047883 -0.1117045,-0.1064031 z M 3.1449669,2.5526962 C 3.7849222,2.3847847 4.0815029,1.6523385 3.741492,1.0794951 3.6874816,0.98849906 3.547278,0.83889328 3.4613,0.78051258 3.0576211,0.50640552 2.5436557,0.55079851 2.2003291,0.88942619 2.064463,1.0234333 1.9735525,1.1822344 1.930929,1.3600124 1.899791,1.4898897 1.90019,1.7067903 1.9318179,1.8329434 c 0.081321,0.3245162 0.3286034,0.5916572 0.6495136,0.7016733 0.1645636,0.056417 0.3899785,0.063647 0.563648,0.018079 z"
       id="path1" /><circle
       style="fill:#ff0000;fill-rule:evenodd;stroke-width:0.285397"
       id="path2"
       cx="2.9363747"
       cy="5.1214924"
       r="0.66145831" /></g></svg>
