<?xml version="1.0" encoding="UTF-8" standalone="no"?>
<!-- Created with Inkscape (http://www.inkscape.org/) -->

<svg
   width="22"
   height="22"
   viewBox="0 0 5.8208332 5.8208333"
   version="1.1"
   id="svg1"
   xml:space="preserve"
   inkscape:version="1.4 (86a8ad7, 2024-10-11)"
   sodipodi:docname="marker.svg"
   xmlns:inkscape="http://www.inkscape.org/namespaces/inkscape"
   xmlns:sodipodi="http://sodipodi.sourceforge.net/DTD/sodipodi-0.dtd"
   xmlns="http://www.w3.org/2000/svg"
   xmlns:svg="http://www.w3.org/2000/svg"><sodipodi:namedview
     id="namedview1"
     pagecolor="#ffffff"
     bordercolor="#666666"
     borderopacity="1.0"
     inkscape:showpageshadow="2"
     inkscape:pageopacity="0.0"
     inkscape:pagecheckerboard="0"
     inkscape:deskcolor="#d1d1d1"
     inkscape:document-units="px"
     showguides="true"
     inkscape:zoom="17.678304"
     inkscape:cx="11.03047"
     inkscape:cy="13.943645"
     inkscape:window-width="1920"
     inkscape:window-height="1057"
     inkscape:window-x="-8"
     inkscape:window-y="-8"
     inkscape:window-maximized="1"
     inkscape:current-layer="layer1"><sodipodi:guide
       position="2.9103121,11.107018"
       orientation="1,0"
       id="guide1"
       inkscape:locked="false" /><sodipodi:guide
       position="-8.450488,2.9091983"
       orientation="0,-1"
       id="guide2"
       inkscape:locked="false" /></sodipodi:namedview><defs
     id="defs1" /><g
     inkscape:label="Capa 1"
     inkscape:groupmode="layer"
     id="layer1"><path
       style="fill:#fd1a1a;fill-opacity:1;stroke-width:0.0626076"
       d="M 2.7299859,5.6224324 C 1.6113598,4.403929 0.94068815,3.3489323 0.76868295,2.5372137 0.7316475,2.3624266 0.73109508,2.008782 0.76756213,1.8075031 0.93214167,0.89872946 1.6654414,0.19081185 2.5838504,0.05408326 2.7751722,0.02559813 3.0995199,0.03270739 3.2942195,0.06965448 4.0285584,0.20899296 4.6456397,0.72397233 4.9059263,1.4146884 c 0.092038,0.2442426 0.1289525,0.4237605 0.1406499,0.6840031 0.00868,0.1931648 0.00489,0.2502879 -0.027581,0.414123 C 4.8875241,3.1764698 4.4265295,3.9944194 3.6493446,4.9430106 3.3603407,5.2957522 2.9231798,5.7756592 2.8908598,5.7756592 c -0.011099,0 -0.083494,-0.068955 -0.16086,-0.1532256 z M 3.2547133,3.5736933 C 4.1762806,3.3318926 4.6033716,2.2771337 4.113739,1.4522109 4.0359614,1.3211721 3.8340613,1.1057324 3.7102487,1.0216613 3.1289312,0.62693356 2.3887954,0.69086167 1.894388,1.1785023 1.6987342,1.3714791 1.5678187,1.6001605 1.5064387,1.8561696 c -0.044841,0.1870299 -0.044265,0.4993774 0.00128,0.6810441 0.117106,0.4673194 0.4732052,0.8520157 0.9353318,1.0104444 0.2369798,0.081243 0.5615884,0.091654 0.811681,0.026035 z"
       id="path1" /></g></svg>
