<?xml version="1.0" encoding="UTF-8" standalone="no"?>
<!-- Created with Inkscape (http://www.inkscape.org/) -->

<svg
   width="900"
   height="80"
   viewBox="0 0 238.12499 21.166667"
   version="1.1"
   id="svg1"
   inkscape:version="1.3-beta (cedbd6c6ff, 2023-05-28)"
   sodipodi:docname="warning.svg"
   xml:space="preserve"
   xmlns:inkscape="http://www.inkscape.org/namespaces/inkscape"
   xmlns:sodipodi="http://sodipodi.sourceforge.net/DTD/sodipodi-0.dtd"
   xmlns="http://www.w3.org/2000/svg"
   xmlns:svg="http://www.w3.org/2000/svg"><sodipodi:namedview
     id="namedview1"
     pagecolor="#ffffff"
     bordercolor="#666666"
     borderopacity="1.0"
     inkscape:showpageshadow="2"
     inkscape:pageopacity="0.0"
     inkscape:pagecheckerboard="0"
     inkscape:deskcolor="#d1d1d1"
     inkscape:document-units="px"
     showgrid="true"
     inkscape:zoom="0.80354936"
     inkscape:cx="263.82947"
     inkscape:cy="-181.07164"
     inkscape:window-width="1920"
     inkscape:window-height="1057"
     inkscape:window-x="-8"
     inkscape:window-y="-8"
     inkscape:window-maximized="1"
     inkscape:current-layer="layer1"><inkscape:grid
       id="grid1"
       units="px"
       originx="0"
       originy="0"
       spacingx="0.26458332"
       spacingy="0.26458334"
       empcolor="#0099e5"
       empopacity="0.30196078"
       color="#0099e5"
       opacity="0.14901961"
       empspacing="5"
       dotted="false"
       gridanglex="30"
       gridanglez="30"
       visible="true" /></sodipodi:namedview><defs
     id="defs1" /><g
     inkscape:label="Capa 1"
     inkscape:groupmode="layer"
     id="layer1"><path
       style="fill:#000000;stroke:none;stroke-width:0.264583px;stroke-linecap:butt;stroke-linejoin:miter;stroke-opacity:1;fill-opacity:0.64999998"
       d="M 5.2916666,21.166667 C 15.875,0 15.875,0 15.875,0 h 3.968749 L 9.2604166,21.166667 Z"
       id="path1" /><path
       style="fill:#000000;fill-opacity:0.75;stroke:none;stroke-width:0.264583px;stroke-linecap:butt;stroke-linejoin:miter;stroke-opacity:1"
       d="M 13.229166,21.166668 C 23.812499,0 23.812499,0 23.812499,0 h 3.968749 L 17.197916,21.166668 Z"
       id="path1-5" /><path
       style="fill:#000000;fill-opacity:0.75;stroke:none;stroke-width:0.264583px;stroke-linecap:butt;stroke-linejoin:miter;stroke-opacity:1"
       d="M 21.166667,21.166667 C 31.75,1.3560632e-8 31.75,1.3560632e-8 31.75,1.3560632e-8 h 3.968749 L 25.135417,21.166667 Z"
       id="path1-8" /><path
       style="fill:#000000;fill-opacity:1;stroke:none;stroke-width:0.264583px;stroke-linecap:butt;stroke-linejoin:miter;stroke-opacity:1"
       d="M 29.104166,21.166667 C 39.687499,0 39.687499,0 39.687499,0 h 3.968749 L 33.072916,21.166667 Z"
       id="path1-7" /><path
       style="fill:#000000;fill-opacity:1;stroke:none;stroke-width:0.264583px;stroke-linecap:butt;stroke-linejoin:miter;stroke-opacity:1"
       d="M 37.041666,21.166667 C 47.624999,0 47.624999,0 47.624999,0 h 3.968749 L 41.010416,21.166667 Z"
       id="path1-6" /><path
       style="fill:#000000;fill-opacity:1;stroke:none;stroke-width:0.264583px;stroke-linecap:butt;stroke-linejoin:miter;stroke-opacity:1"
       d="M 44.979166,21.166668 C 55.562499,0 55.562499,0 55.562499,0 h 3.968749 L 48.947916,21.166668 Z"
       id="path1-9" /><path
       style="fill:#000000;fill-opacity:0.64855075;stroke:none;stroke-width:0.264583px;stroke-linecap:butt;stroke-linejoin:miter;stroke-opacity:1"
       d="M 232.83333,0 C 222.25,21.166666 222.25,21.166666 222.25,21.166666 h -3.96875 L 228.86458,0 Z"
       id="path1-96" /><path
       style="fill:#000000;fill-opacity:0.75;stroke:none;stroke-width:0.264583px;stroke-linecap:butt;stroke-linejoin:miter;stroke-opacity:1"
       d="m 224.89583,-1e-6 C 214.3125,21.166666 214.3125,21.166666 214.3125,21.166666 h -3.96875 L 220.92708,-10e-7 Z"
       id="path1-5-0" /><path
       style="fill:#000000;fill-opacity:0.75;stroke:none;stroke-width:0.264583px;stroke-linecap:butt;stroke-linejoin:miter;stroke-opacity:1"
       d="M 216.95833,0 C 206.375,21.166666 206.375,21.166666 206.375,21.166666 h -3.96875 L 212.98958,0 Z"
       id="path1-8-4" /><path
       style="fill:#000000;fill-opacity:1;stroke:none;stroke-width:0.264583px;stroke-linecap:butt;stroke-linejoin:miter;stroke-opacity:1"
       d="M 209.02083,0 C 198.4375,21.166666 198.4375,21.166666 198.4375,21.166666 h -3.96875 L 205.05208,0 Z"
       id="path1-7-6" /><path
       style="fill:#000000;fill-opacity:1;stroke:none;stroke-width:0.264583px;stroke-linecap:butt;stroke-linejoin:miter;stroke-opacity:1"
       d="M 201.08333,0 C 190.5,21.166666 190.5,21.166666 190.5,21.166666 h -3.96875 L 197.11458,0 Z"
       id="path1-6-5" /><path
       style="fill:#000000;fill-opacity:1;stroke:none;stroke-width:0.264583px;stroke-linecap:butt;stroke-linejoin:miter;stroke-opacity:1"
       d="m 193.14583,-1e-6 C 182.5625,21.166666 182.5625,21.166666 182.5625,21.166666 h -3.96875 L 189.17708,-10e-7 Z"
       id="path1-9-6" /><path
       style="fill:#000000;stroke:none;stroke-width:0.264583px;stroke-linecap:butt;stroke-linejoin:miter;stroke-opacity:1;fill-opacity:1"
       d="M 54.239583,21.166667 64.822916,0 H 183.88541 l -10.58333,21.166667 z"
       id="path2" /><path
       style="display:none;fill:#ffffff;fill-opacity:1;stroke-width:0.102492"
       d="m 70.937967,18.593761 c -1.187819,-0.173106 -2.033266,-1.186263 -1.957127,-2.34535 0.02557,-0.389531 0.118801,-0.625999 0.609568,-1.54634 0.237711,-0.445778 0.804612,-1.512172 1.259784,-2.369766 0.455167,-0.857594 0.976991,-1.839931 1.159596,-2.182969 0.182612,-0.3430406 0.655323,-1.2338554 1.050471,-1.9795902 0.395148,-0.7457337 1.017109,-1.9172145 1.382125,-2.6032906 0.365023,-0.6860751 0.731475,-1.3755407 0.814345,-1.5321446 0.190468,-0.3599309 0.278133,-0.4893257 0.466064,-0.6878997 0.975962,-1.0312346 2.690486,-0.9283425 3.555006,0.2133412 0.05649,0.074577 0.235899,0.3857477 0.398733,0.6914987 0.707277,1.3280387 1.099145,2.0655154 2.190212,4.1218772 0.637033,1.200632 1.307778,2.46364 1.490545,2.806678 0.18276,0.343038 0.494223,0.928779 0.69214,1.301645 0.19791,0.372867 0.50272,0.946406 0.677359,1.274528 1.114087,2.093298 1.085973,2.028089 1.105822,2.5649 0.0154,0.416901 -0.03876,0.671343 -0.221849,1.041742 -0.283822,0.574224 -0.81461,1.00368 -1.466522,1.186554 l -0.216937,0.06085 -6.413315,0.0037 c -3.542082,0.002 -6.48616,-0.0068 -6.57602,-0.01999 z m 13.097807,-0.278535 c 0.252039,-0.06478 0.640637,-0.255564 0.834723,-0.409819 0.279506,-0.222139 0.526349,-0.590676 0.645078,-0.963108 0.07214,-0.226323 0.09652,-0.611841 0.0541,-0.855851 -0.05624,-0.323668 0.0013,-0.208634 -1.67546,-3.360938 C 83.759368,12.471961 83.338262,11.678771 82.958432,10.962866 81.312444,7.8605399 80.823579,6.9397604 80.510861,6.352867 80.328082,6.0098294 80.023059,5.4362917 79.833043,5.0783397 79.643022,4.7203877 79.406534,4.2749804 79.307516,4.0885467 79.150287,3.7925165 79.094851,3.7167699 78.869869,3.4905965 78.657753,3.2773606 78.571537,3.2116007 78.381749,3.1182964 78.048438,2.9544321 77.789797,2.8953725 77.405515,2.8953725 c -0.395336,0 -0.639777,0.058437 -0.983657,0.2351541 -0.199321,0.1024322 -0.297063,0.1756836 -0.480691,0.3602539 -0.250422,0.251701 -0.23753,0.2306587 -0.847932,1.384177 -0.421624,0.7967663 -1.00328,1.8935892 -1.287082,2.4270265 -0.119021,0.2237202 -0.530776,0.9986051 -0.914999,1.7219677 -0.822123,1.5477703 -2.069197,3.8948993 -2.913513,5.4835533 -0.330645,0.622142 -0.623547,1.196191 -0.650889,1.275664 -0.263339,0.7654 -0.01088,1.605776 0.639926,2.130008 0.304318,0.245139 0.67589,0.396792 1.073607,0.438177 0.107786,0.01121 3.033155,0.01866 6.500818,0.01653 5.974529,-0.0037 6.31479,-0.0064 6.494671,-0.05265 z M 72.0417,17.212874 c -0.711716,-0.186457 -1.210321,-0.817988 -1.209182,-1.531545 6.15e-4,-0.366454 0.07241,-0.557549 0.499459,-1.328761 0.04129,-0.07458 0.495647,-0.928778 1.009666,-1.898233 0.514026,-0.969455 1.349301,-2.5436333 1.856176,-3.4981773 0.506869,-0.9545396 1.12173,-2.1138178 1.36636,-2.5761727 0.429357,-0.8114916 0.452306,-0.8482691 0.661723,-1.0604624 0.168244,-0.1704787 0.263714,-0.2422316 0.425351,-0.3196821 0.657181,-0.3149076 1.425984,-0.198254 1.931377,0.2930547 0.185485,0.1803201 0.24371,0.2745975 0.679733,1.1006489 0.346139,0.6557709 0.840038,1.586353 1.302511,2.4541435 0.182819,0.3430375 0.704507,1.3253774 1.159311,2.1829724 0.454811,0.857594 0.930758,1.75451 1.057667,1.993145 0.12691,0.238635 0.422129,0.793868 0.656035,1.233852 0.233912,0.439982 0.451148,0.873185 0.482755,0.962674 0.078,0.220874 0.08259,0.690027 0.0089,0.90844 -0.190526,0.564541 -0.632024,0.967174 -1.20075,1.095054 -0.17623,0.03963 -0.6948,0.04374 -5.342173,0.04239 -4.978368,-0.0014 -5.153472,-0.0032 -5.344905,-0.05335 z m 5.608917,-1.955382 c 0.171072,-0.05125 0.355192,-0.211151 0.444721,-0.386208 0.261327,-0.510985 -0.110782,-1.110529 -0.689823,-1.111437 -0.308744,-5.11e-4 -0.536204,0.141391 -0.676369,0.421874 -0.304951,0.610269 0.262815,1.27311 0.921471,1.075771 z m 0.02783,-2.11411 c 0.05319,-0.01323 0.125952,-0.05522 0.161728,-0.0933 0.06407,-0.06821 0.06799,-0.10427 0.261236,-2.406993 0.107902,-1.2857664 0.196693,-2.4231744 0.197315,-2.5275773 0.0019,-0.3219656 -0.159003,-0.5765849 -0.467023,-0.7389568 -0.128301,-0.067637 -0.167952,-0.074567 -0.426198,-0.074567 -0.246469,0 -0.301134,0.00859 -0.406766,0.063885 -0.252344,0.1321199 -0.445316,0.3889062 -0.476859,0.6345559 -0.02174,0.1693145 0.386554,4.9799092 0.426775,5.0283732 0.11717,0.141187 0.427228,0.189866 0.729792,0.11458 z"
       id="path3"
       sodipodi:nodetypes="cssssssssssssssssscccssssssssssssssssssssssssscssssssssssssscsssssssssssssssssss" /></g></svg>
