<?xml version="1.0" encoding="UTF-8" standalone="no"?>
<!-- Created with Inkscape (http://www.inkscape.org/) -->

<svg
   width="15"
   height="15"
   viewBox="0 0 3.9687499 3.96875"
   version="1.1"
   id="svg1"
   xml:space="preserve"
   inkscape:version="1.4 (86a8ad7, 2024-10-11)"
   sodipodi:docname="x.svg"
   xmlns:inkscape="http://www.inkscape.org/namespaces/inkscape"
   xmlns:sodipodi="http://sodipodi.sourceforge.net/DTD/sodipodi-0.dtd"
   xmlns="http://www.w3.org/2000/svg"
   xmlns:svg="http://www.w3.org/2000/svg"><sodipodi:namedview
     id="namedview1"
     pagecolor="#ffffff"
     bordercolor="#666666"
     borderopacity="1.0"
     inkscape:showpageshadow="2"
     inkscape:pageopacity="0.0"
     inkscape:pagecheckerboard="0"
     inkscape:deskcolor="#d1d1d1"
     inkscape:document-units="px"
     inkscape:zoom="25.000898"
     inkscape:cx="2.5999066"
     inkscape:cy="11.69958"
     inkscape:window-width="1920"
     inkscape:window-height="1057"
     inkscape:window-x="-8"
     inkscape:window-y="-8"
     inkscape:window-maximized="1"
     inkscape:current-layer="layer1" /><defs
     id="defs1" /><g
     inkscape:label="Capa 1"
     inkscape:groupmode="layer"
     id="layer1"><path
       style="fill:#000000;stroke-width:0.0283437"
       d="M 0.41188575,3.897675 C 0.30597833,3.8746587 0.20618372,3.8063376 0.14350931,3.7139383 0.05172508,3.5786248 0.0411105,3.4132069 0.11463971,3.2640451 0.14118051,3.2102105 0.16838986,3.1817141 0.75020574,2.5984837 L 1.3580462,1.9891672 0.75020574,1.3798507 C 0.16838928,0.79662037 0.14117877,0.76812594 0.11463971,0.71428927 0.04125106,0.56541352 0.0521829,0.39715639 0.14397399,0.26281747 0.2695319,0.07905694 0.50623734,0.0189907 0.70966093,0.11926921 c 0.053835,0.0265408 0.0823312,0.0537501 0.66556087,0.63556603 L 1.9845389,1.3626757 2.5938555,0.75483524 C 3.1770856,0.17301868 3.20558,0.14580818 3.2594169,0.11926921 3.4082925,0.04588046 3.5765491,0.0568124 3.710888,0.14860339 3.8946485,0.27416131 3.9547148,0.51086684 3.8544363,0.71429034 3.8278955,0.76812536 3.8006857,0.79662163 3.2188702,1.3798518 L 2.6110303,1.9891683 3.2188702,2.5984849 C 3.8006874,3.1817151 3.8278978,3.2102095 3.8544363,3.2640463 3.9278256,3.412922 3.9168936,3.5811786 3.8251018,3.7155175 3.6995441,3.899278 3.4628386,3.9593442 3.259415,3.8590663 3.20558,3.8325256 3.1770839,3.8053162 2.5938537,3.2235002 L 1.9845383,2.6156587 1.3752212,3.2234992 C 0.79193258,3.8053746 0.76350214,3.8325228 0.70966035,3.8590579 c -0.0952219,0.046928 -0.19812616,0.060273 -0.2977746,0.038615 z"
       id="path1" /></g></svg>
