<?xml version="1.0" encoding="UTF-8" standalone="no"?>
<!-- Created with Inkscape (http://www.inkscape.org/) -->

<svg
   width="30"
   height="30"
   viewBox="0 0 7.937499 7.937499"
   version="1.1"
   id="svg1"
   inkscape:version="1.3-beta (cedbd6c6ff, 2023-05-28)"
   sodipodi:docname="zoom_in.svg"
   xml:space="preserve"
   xmlns:inkscape="http://www.inkscape.org/namespaces/inkscape"
   xmlns:sodipodi="http://sodipodi.sourceforge.net/DTD/sodipodi-0.dtd"
   xmlns="http://www.w3.org/2000/svg"
   xmlns:svg="http://www.w3.org/2000/svg"><sodipodi:namedview
     id="namedview1"
     pagecolor="#ffffff"
     bordercolor="#666666"
     borderopacity="1.0"
     inkscape:showpageshadow="2"
     inkscape:pageopacity="0.0"
     inkscape:pagecheckerboard="0"
     inkscape:deskcolor="#d1d1d1"
     inkscape:document-units="px"
     inkscape:zoom="35.638817"
     inkscape:cx="8.8386773"
     inkscape:cy="17.607206"
     inkscape:window-width="1920"
     inkscape:window-height="1057"
     inkscape:window-x="-8"
     inkscape:window-y="-8"
     inkscape:window-maximized="1"
     inkscape:current-layer="layer1"
     showguides="true"><sodipodi:guide
       position="5.2915717,9.8273932"
       orientation="1,0"
       id="guide1"
       inkscape:locked="false" /><sodipodi:guide
       position="5.2915717,5.2917603"
       orientation="0,-1"
       id="guide2"
       inkscape:locked="false" /><sodipodi:guide
       position="-11.908129,10.056227"
       orientation="0,-1"
       id="guide4"
       inkscape:locked="false" /><sodipodi:guide
       position="-14.543656,0.53120842"
       orientation="0,-1"
       id="guide5"
       inkscape:locked="false" /><sodipodi:guide
       position="5.6485429,1.4070747"
       orientation="0,-1"
       id="guide6"
       inkscape:locked="false" /></sodipodi:namedview><defs
     id="defs1"><clipPath
       clipPathUnits="userSpaceOnUse"
       id="clipPath1"><rect
         style="fill:#bd8a61;fill-opacity:0.550265;stroke:#61bdb6;stroke-width:1.00012;stroke-miterlimit:9.8"
         id="rect2"
         width="49.723984"
         height="63.834843"
         x="3.3597281"
         y="24.86199" /></clipPath><clipPath
       clipPathUnits="userSpaceOnUse"
       id="clipPath4"><rect
         style="fill:#dd061a;fill-opacity:1;stroke:#61bdb6;stroke-width:1.2;stroke-miterlimit:9.8;stroke-dasharray:1.2, 2.4"
         id="rect4"
         width="248.61987"
         height="235.18097"
         x="-452.89136"
         y="-276.16962" /></clipPath></defs><g
     inkscape:label="Capa 1"
     inkscape:groupmode="layer"
     id="layer1"><text
       xml:space="preserve"
       style="font-style:normal;font-weight:normal;font-size:4.50142px;line-height:1.25;font-family:sans-serif;display:none;fill:#00d300;fill-opacity:1;stroke:none;stroke-width:0.112536"
       x="6.9329004"
       y="9.7676306"
       id="text1"
       sodipodi:insensitive="true"><tspan
         sodipodi:role="line"
         id="tspan1"
         x="6.9329004"
         y="9.7676306"
         style="font-style:normal;font-variant:normal;font-weight:normal;font-stretch:normal;font-family:Conthrax;-inkscape-font-specification:Conthrax;fill:#00d300;fill-opacity:1;stroke-width:0.112536">+</tspan></text><path
       style="display:none;fill:#61bdb6;fill-opacity:1;stroke:#61bdb6;stroke-width:0.227;stroke-dasharray:none;stroke-opacity:1"
       d="M 3.6407094,7.2000703 C 3.3602045,7.1528626 3.1287505,6.93526 3.0699245,6.6634391 3.0502575,6.5724404 3.0550905,6.578982 2.9876735,6.5533574 2.9128385,6.5249411 2.8495628,6.4980249 2.7917117,6.4699586 c -0.024084,-0.011666 -0.047918,-0.02125 -0.052834,-0.02125 -0.005,0 -0.034334,0.016 -0.065251,0.035666 C 2.4257057,6.6415477 2.1068418,6.6259313 1.8696377,6.444959 1.7907197,6.3847099 1.4145047,6.0011989 1.3761291,5.9417998 1.2941277,5.8148684 1.2603354,5.7003367 1.260552,5.5499556 1.2607687,5.3925246 1.2993027,5.2699431 1.3891543,5.1409784 l 0.031917,-0.045916 -0.035667,-0.083524 C 1.3658205,4.9656226 1.3437368,4.9106235 1.3364033,4.8893738 1.321653,4.8466244 1.317903,4.8441244 1.2475934,4.8311246 1.1256912,4.808625 1.0020057,4.742201 0.90572906,4.6476024 0.81421906,4.5576704 0.76282652,4.4779216 0.72505086,4.3671982 0.69080026,4.2668247 0.68680019,4.2179671 0.68680019,3.9034551 c 0,-0.314512 0.004167,-0.3633696 0.0382507,-0.4637431 C 0.80371889,3.2090904 1.0025474,3.0292181 1.2341765,2.9790938 1.3255445,2.9593438 1.3191615,2.9639278 1.342345,2.9004278 1.353928,2.8687618 1.379596,2.8068458 1.399513,2.7627715 L 1.435597,2.6826065 1.403013,2.6383575 C 1.2159262,2.384236 1.2104761,2.0511493 1.3892626,1.7972614 1.4310133,1.7379289 1.8173618,1.3501097 1.8802879,1.3043187 2.1313173,1.1216715 2.48044,1.1231214 2.7238276,1.307652 l 0.049084,0.037249 0.080335,-0.036249 C 2.8974136,1.288736 2.9594984,1.262986 2.9911406,1.251403 3.0546416,1.228237 3.0499746,1.23457 3.0697256,1.1432379 3.1198936,0.91161643 3.2997297,0.71280272 3.5303504,0.63412055 c 0.1003767,-0.0342495 0.1492359,-0.0382494 0.4637498,-0.0382494 0.3145221,0 0.3633813,0.004167 0.4637581,0.0382494 0.2374208,0.0809988 0.4133406,0.28012084 0.4641914,0.52543385 0.0075,0.035249 0.015834,0.066249 0.019,0.068916 0.00333,0.0025 0.021917,0.010666 0.041667,0.017666 0.01975,0.00667 0.073668,0.028666 0.1197354,0.048166 l 0.083793,0.035416 0.045584,-0.031749 c 0.1286939,-0.08964 0.2514044,-0.1281981 0.4087238,-0.1284148 0.150386,-2.25e-4 0.2649213,0.033583 0.3918485,0.1155733 0.059418,0.038333 0.4429494,0.4145522 0.5031755,0.493501 0.1809365,0.2371965 0.1965451,0.5560584 0.039334,0.8039714 -0.019584,0.030916 -0.035667,0.059249 -0.035667,0.062832 0,0.00333 0.015084,0.039833 0.033584,0.080415 0.0185,0.040583 0.047251,0.1093317 0.064085,0.1528311 0.033751,0.087474 0.025417,0.080332 0.1170937,0.1001901 0.2316374,0.050083 0.4304992,0.2300383 0.5091256,0.4606182 0.033251,0.097515 0.038251,0.1578476 0.038251,0.4637431 0,0.3058954 -0.005,0.3662196 -0.038251,0.4637431 -0.037751,0.11069 -0.089152,0.1904638 -0.1806698,0.2804042 -0.095368,0.093707 -0.2039036,0.153256 -0.3284558,0.180214 -0.091218,0.01975 -0.083576,0.0135 -0.1136353,0.093399 -0.014917,0.039749 -0.040584,0.1008735 -0.056918,0.135798 -0.016334,0.034916 -0.029751,0.068249 -0.029751,0.073999 0,0.00583 0.00583,0.019083 0.0135,0.029583 0.0075,0.0105 0.025,0.041749 0.039001,0.069416 0.1167604,0.2308043 0.098752,0.5056335 -0.047334,0.722572 C 6.5303683,5.9947741 6.1169449,6.4111429 6.0611856,6.4536756 6.0026846,6.4982586 5.8880242,6.5522326 5.8094895,6.5720905 5.7202045,6.5946735 5.55576,6.5949235 5.4752086,6.5725822 5.3951236,6.5504162 5.3486064,6.5314992 5.285247,6.4953332 c -0.031334,-0.017833 -0.060834,-0.0325 -0.065584,-0.0325 -0.005,0 -0.039001,0.014083 -0.076085,0.031166 -0.037084,0.017166 -0.096527,0.041916 -0.1321106,0.055082 -0.070251,0.025916 -0.082668,0.03575 -0.082668,0.065332 0,0.033583 -0.035584,0.1437895 -0.065835,0.203972 -0.1033602,0.2054902 -0.2930552,0.3446631 -0.5201508,0.3816259 -0.086118,0.014016 -0.6187525,0.013883 -0.702304,-1.625e-4 z m 0.6958872,-0.486732 c 0.046334,-0.024416 0.098452,-0.081915 0.1145104,-0.1262648 0.00833,-0.022833 0.013917,-0.068499 0.017167,-0.1383562 0.005,-0.1004902 0.00583,-0.1058985 0.029167,-0.1497978 0.024167,-0.045249 0.061501,-0.081999 0.1059352,-0.1045901 0.012667,-0.00667 0.070918,-0.027583 0.1294189,-0.046916 C 4.857589,6.1060804 4.9627992,6.0620394 5.0871763,5.999099 5.1917948,5.946183 5.2455708,5.932517 5.3018968,5.9446 c 0.058584,0.012583 0.097068,0.034583 0.1532776,0.08764 0.074501,0.070332 0.1008101,0.081999 0.1856283,0.081999 0.1048352,0 0.1069435,-0.00167 0.3349225,-0.2293299 0.2276873,-0.227605 0.2290207,-0.2295549 0.229304,-0.334845 2.167e-4,-0.084549 -0.01325,-0.1156817 -0.080335,-0.1855806 -0.053084,-0.055333 -0.078835,-0.1005569 -0.089218,-0.1566894 -0.01075,-0.058082 0.00167,-0.1073317 0.054501,-0.2113468 0.063001,-0.1247232 0.1069852,-0.2298799 0.148161,-0.3541698 0.019334,-0.058332 0.041834,-0.1191649 0.049917,-0.1351063 0.02025,-0.039749 0.063834,-0.081582 0.1092102,-0.1049651 0.034167,-0.017583 0.048418,-0.020083 0.1422442,-0.024583 0.1013184,-0.005 0.1313356,-0.010083 0.1654029,-0.02825 0.031584,-0.016916 0.080501,-0.067999 0.099477,-0.1039485 l 0.019084,-0.036249 V 3.9036134 3.598043 L 6.8043895,3.561794 C 6.7853895,3.525878 6.7364715,3.474754 6.7049125,3.4578455 6.6708285,3.4395955 6.6408285,3.4345125 6.5395096,3.4295955 6.4212242,3.4237622 6.3891403,3.4127624 6.332856,3.3581799 6.293855,3.3202638 6.279772,3.2916808 6.237963,3.1643327 6.195046,3.0336513 6.15117,2.9303529 6.0833186,2.8000048 6.0254006,2.6887148 6.0108176,2.6413322 6.0168176,2.5834497 c 0.00667,-0.061582 0.034584,-0.1132066 0.098152,-0.1793807 0.080751,-0.084074 0.090227,-0.1044817 0.090227,-0.1936221 0,-0.061582 -0.0025,-0.076582 -0.016917,-0.1042568 C 6.1776126,2.0859404 6.0985036,2.000625 5.9761759,1.8776435 5.7488636,1.6491303 5.7405635,1.643322 5.6408117,1.6428053 5.5583107,1.6423804 5.5296348,1.6564718 5.4412249,1.7410956 5.3487569,1.8295776 5.3202061,1.8435024 5.2309796,1.8436524 L 5.1626446,1.8437607 5.0476093,1.7885948 C 4.9116152,1.7234292 4.8164219,1.6848214 4.7132034,1.6529802 4.5837678,1.6130641 4.5365253,1.5813146 4.497483,1.508199 4.474149,1.4644497 4.472983,1.4585331 4.468149,1.3584012 4.464819,1.2903189 4.458899,1.242328 4.450899,1.220045 4.435149,1.1757956 4.383064,1.1182882 4.336572,1.0937802 L 4.299821,1.0743638 H 3.9942406 3.6886686 l -0.036251,0.019166 c -0.035917,0.018916 -0.087035,0.067832 -0.1039518,0.099465 -0.01825,0.034083 -0.023334,0.064082 -0.02825,0.1653976 -0.00417,0.093407 -0.00667,0.1081484 -0.024334,0.1416895 -0.022667,0.044083 -0.067418,0.090465 -0.1064185,0.1103651 -0.015334,0.0075 -0.075585,0.029999 -0.133944,0.049333 C 3.1312338,1.700946 3.0260736,1.744945 2.9013464,1.8079356 2.7969112,1.8606846 2.7481854,1.8731846 2.6893177,1.8622686 2.6282337,1.8509356 2.5925657,1.8286026 2.5134979,1.7521202 2.4737469,1.7136212 2.4241959,1.6732882 2.4034377,1.6624962 2.3704367,1.6453302 2.3575207,1.6428302 2.3009859,1.6429132 c -0.1014768,1.083e-4 -0.1050268,0.0025 -0.3321642,0.2288299 -0.2273289,0.2264466 -0.235829,0.2386548 -0.235829,0.338595 0,0.079249 0.019584,0.1186649 0.096318,0.1941304 0.075251,0.073999 0.1053101,0.1180983 0.1200187,0.1760391 0.017417,0.068832 0.00583,0.1219148 -0.048584,0.2270633 -0.059251,0.1140566 -0.1090019,0.2321549 -0.1505026,0.3574947 -0.019334,0.058499 -0.040501,0.1167149 -0.046918,0.1294147 -0.022584,0.044416 -0.059334,0.081749 -0.1045935,0.1059318 -0.043834,0.0235 -0.049417,0.024583 -0.1497944,0.02925 -0.1012851,0.005 -0.1312856,0.00983 -0.1654112,0.028083 -0.031584,0.016917 -0.080501,0.067999 -0.099468,0.1039402 l -0.019167,0.036249 v 0.3055622 0.3055704 l 0.019417,0.036749 c 0.0245,0.046416 0.082085,0.098548 0.1262605,0.1143233 0.02225,0.00833 0.070251,0.013916 0.1383691,0.01725 0.1001518,0.005 0.1060436,0.00583 0.1497944,0.029333 0.071335,0.038083 0.1057851,0.088024 0.1411441,0.204522 0.030167,0.099348 0.077501,0.2170467 0.1386107,0.3443699 l 0.055751,0.1162566 v 0.068332 c -8.3e-6,0.090757 -0.011917,0.1154066 -0.1003518,0.2078219 -0.087093,0.091015 -0.101035,0.1190066 -0.10061,0.2020053 5.167e-4,0.099748 0.00667,0.1080484 0.2348457,0.3353534 0.1280356,0.1273564 0.207437,0.200847 0.228554,0.2115385 0.023084,0.011667 0.048918,0.01725 0.089868,0.019416 0.086093,0.00417 0.1257105,-0.012666 0.2049619,-0.08904 0.082835,-0.079832 0.1246022,-0.099832 0.2084953,-0.099832 h 0.061168 l 0.1545444,0.076749 c 0.150711,0.074832 0.2717714,0.1247399 0.38104,0.1569727 0.1041768,0.03075 0.1571111,0.068249 0.1942868,0.1377146 0.0235,0.043833 0.024584,0.049416 0.02925,0.1497895 0.00667,0.1345813 0.012917,0.155781 0.066334,0.2137468 0.028084,0.030499 0.066668,0.055083 0.1055685,0.067249 0.00992,0.00333 0.1506276,0.005 0.3127638,0.00417 l 0.2947885,-0.00167 z M 3.8073624,5.3082175 C 3.2340023,5.230552 2.7638024,4.8118499 2.6215999,4.2522249 2.5668489,4.0367364 2.5642659,3.7907068 2.6149299,3.5800182 2.7680825,2.9394527 3.3386009,2.4871261 3.993404,2.4871261 c 0.650053,0 1.2152129,0.4403268 1.3745657,1.0709508 0.068084,0.2694293 0.053584,0.5664416 -0.040334,0.8259294 -0.1426942,0.3942608 -0.458333,0.7098728 -0.8526399,0.852579 -0.2037453,0.073749 -0.453658,0.1005568 -0.6673701,0.071666 z M 4.2100027,4.8242164 C 4.3814557,4.7816337 4.5227916,4.7040182 4.6462437,4.5846033 4.7535289,4.4808215 4.8188551,4.3848063 4.8718977,4.2529332 4.9215647,4.1294351 4.9319817,4.0697026 4.9323157,3.9071134 4.9326074,3.7497324 4.9256457,3.706033 4.8841487,3.5871681 4.8360647,3.4506452 4.76958,3.3468134 4.6602864,3.2375233 4.5246257,3.101867 4.3822316,3.0231682 4.1920032,2.9786938 4.1029852,2.9578608 3.8712226,2.9596941 3.7821711,2.9820271 3.6067263,3.0256931 3.4666989,3.102317 3.3423384,3.2226152 3.2041609,3.3562799 3.1195845,3.5025944 3.0733253,3.6880083 c -0.015084,0.060332 -0.017084,0.085124 -0.017167,0.2120968 -1.083e-4,0.1155567 0.0025,0.1550977 0.013334,0.201322 0.042167,0.180439 0.1207105,0.3270202 0.2427793,0.4532016 0.1286105,0.1329314 0.2544544,0.2089969 0.4277241,0.2585212 0.09611,0.0275 0.1380858,0.031833 0.2795049,0.029 0.1010184,-0.00167 0.1428358,-0.00583 0.1905367,-0.01775 z"
       id="path6" /><path
       style="display:none;fill:#61bdb6;fill-opacity:1;stroke:none;stroke-width:0.0569006;stroke-opacity:1"
       d="M 2.2543667,7.3269076 C 1.8586807,7.2776144 1.5327187,7.0080074 1.4173927,6.6346311 1.3923527,6.5535452 1.3900127,6.3921329 1.3857427,4.450553 l -0.0046,-2.096526 -0.222285,-0.00476 c -0.214137,-0.00455 -0.224576,-0.00621 -0.284784,-0.045454 -0.171551,-0.1118096 -0.193308,-0.3415349 -0.0455,-0.4803932 0.09063,-0.085143 0.08622,-0.084698 0.846114,-0.08475 l 0.696819,-5.07e-5 0.0092,-0.2296415 c 0.01041,-0.2604013 0.03178,-0.3553914 0.115666,-0.51418433 0.07988,-0.15120385 0.262351,-0.32265488 0.423425,-0.39785319 0.226818,-0.10589299 0.223393,-0.1055701 1.118348,-0.1055701 0.8937839,0 0.8890879,-4.4087e-4 1.1183369,0.10488809 0.159824,0.0734276 0.342532,0.24539398 0.423437,0.3985352 0.08389,0.15879293 0.105258,0.25378303 0.115665,0.51418433 l 0.0092,0.2296415 0.696819,5.07e-5 c 0.7490301,5.49e-5 0.7523291,3.591e-4 0.8388511,0.076791 0.153729,0.1358064 0.134966,0.37547 -0.03824,0.4883549 -0.06021,0.039244 -0.07065,0.04091 -0.2847831,0.045454 l -0.222285,0.00476 -0.0046,2.096526 c -0.0051,2.3426734 0.0041,2.1526818 -0.116512,2.3810689 -0.08095,0.1532251 -0.263645,0.325147 -0.423437,0.3984659 -0.242676,0.1113501 -0.09996,0.1039266 -2.0502929,0.1066474 -0.961081,0.00135 -1.791726,-0.0031 -1.845877,-0.00983 z M 5.8680856,6.6673377 c 0.03561,-0.022137 0.08402,-0.067622 0.10759,-0.1010703 l 0.04285,-0.060822 0.0041,-2.0766638 0.0041,-2.0766649 H 4.0383417 2.0499587 l 5.9e-5,2.0464121 c 5.9e-5,1.4078014 0.0053,2.0639488 0.0167,2.1026093 0.02046,0.069215 0.132543,0.1779234 0.203405,0.1972743 0.0321,0.0088 0.710214,0.013174 1.792425,0.011643 l 1.7407919,-0.00248 z M 3.2616427,5.7618046 c -0.07427,-0.02222 -0.175254,-0.1209469 -0.198514,-0.1940805 -0.01429,-0.044947 -0.0191,-0.3077604 -0.0191,-1.0441089 V 3.539568 l 0.04017,-0.075725 c 0.069,-0.1300822 0.207832,-0.1923554 0.361863,-0.1623158 0.117607,0.022934 0.223531,0.1212336 0.248499,0.230606 0.02368,0.1037279 0.0241,1.9256535 4.69e-4,2.0081014 -0.05194,0.1811865 -0.242581,0.2786532 -0.433379,0.2215712 z m 1.293853,-0.017769 c -0.08725,-0.040848 -0.147905,-0.1117683 -0.174291,-0.2038037 -0.02364,-0.082452 -0.02321,-1.9043735 4.7e-4,-2.0081014 0.02497,-0.1093724 0.130892,-0.2076691 0.248499,-0.230606 0.1540309,-0.030044 0.2928609,0.032238 0.3618629,0.1623158 l 0.04017,0.075725 v 0.9840472 c 0,0.7363485 -0.0048,0.9991664 -0.0191,1.0441088 -0.02466,0.077526 -0.125401,0.1721672 -0.207922,0.1953308 -0.09602,0.026949 -0.1622619,0.021909 -0.2496809,-0.019022 z M 5.0297746,1.5299825 c -0.0051,-0.1997075 -0.0073,-0.211755 -0.04819,-0.2698264 -0.02357,-0.033438 -0.07198,-0.078902 -0.107594,-0.1010392 l -0.06475,-0.040248 H 4.0381077 3.2669747 l -0.06475,0.040248 c -0.03561,0.022137 -0.08403,0.067611 -0.107594,0.1010392 -0.04093,0.058069 -0.04309,0.070116 -0.04819,0.2698264 l -0.0053,0.2090403 h 0.997 0.9969999 z"
       id="path7" /><path
       style="display:inline;fill:none;fill-opacity:1;stroke:#61bdb6;stroke-width:0.3175;stroke-dasharray:none;stroke-opacity:1"
       d="m 6.5037828,7.0932262 c -0.077623,-0.01771 -0.1642613,-0.05508 -0.2209559,-0.09531 -0.032803,-0.02327 -0.3255458,-0.309771 -0.7591801,-0.742986 l -0.7057874,-0.705105 -0.050927,0.03005 c -0.2958699,0.174576 -0.6466743,0.290545 -1.0154461,0.335686 -0.1214765,0.01487 -0.4329196,0.0128 -0.5684707,-0.0038 C 2.9203658,5.8796412 2.6674616,5.8099172 2.4343476,5.7053432 2.0735741,5.5435012 1.7260134,5.2718352 1.4847511,4.9631012 1.1741885,4.5656862 1.0035933,4.1489742 0.94666926,3.6487262 c -0.0126078,-0.110901 -0.0126078,-0.413481 0,-0.524382 C 1.0035914,2.6240966 1.1741885,2.2073844 1.4847511,1.8099698 1.7555648,1.46342 2.1358606,1.182105 2.5594265,1.0150032 c 0.095963,-0.037859 0.3081854,-0.099731 0.4144894,-0.12084207 0.1717744,-0.034114 0.3077825,-0.046619 0.5070345,-0.046619 0.2789899,0 0.4798334,0.028755 0.733323,0.1049914 0.3176955,0.095546 0.5725387,0.22853557 0.8462655,0.44162447 0.3472141,0.2702959 0.6290684,0.6498641 0.79649,1.0726187 0.037926,0.095779 0.099922,0.3075953 0.1210747,0.4136951 0.034751,0.1743294 0.046862,0.3068884 0.046572,0.5099774 -2.848e-4,0.239112 -0.019605,0.3993 -0.073914,0.614388 -0.056276,0.222881 -0.1675884,0.493944 -0.2763747,0.672989 l -0.026096,0.04295 0.7103359,0.708407 c 0.54564,0.544157 0.7194714,0.722092 0.7497328,0.767432 0.024541,0.03677 0.049466,0.08842 0.066111,0.136966 0.025215,0.07357 0.026714,0.08386 0.026714,0.183599 0,0.09974 -0.0015,0.110028 -0.026714,0.183599 -0.031791,0.09275 -0.080255,0.168687 -0.1507712,0.236273 -0.070204,0.06729 -0.1335269,0.105765 -0.2231458,0.135598 -0.064144,0.02135 -0.091608,0.02614 -0.1633621,0.02849 -0.055049,0.0018 -0.1033217,-0.0011 -0.1334155,-0.0079 z M 3.6501415,5.1393812 c 0.4170335,-0.0398 0.7918235,-0.220984 1.0950191,-0.529367 0.1250697,-0.12721 0.2162436,-0.251367 0.2952228,-0.402025 0.2735234,-0.521767 0.2735234,-1.121072 0,-1.6428389 C 4.9614023,2.4144923 4.8702303,2.2903356 4.7451606,2.1631253 4.5208486,1.9349761 4.2736001,1.784941 3.977038,1.6970141 3.4291144,1.5345622 2.8256344,1.6543071 2.3752794,2.0148406 c -0.06184,0.049507 -0.1882666,0.1748851 -0.2503602,0.248285 -0.5426164,0.6414138 -0.5426164,1.6054746 0,2.2468886 0.062093,0.0734 0.1885195,0.198778 0.2503602,0.248285 0.3586829,0.287145 0.8186013,0.424625 1.2748621,0.381082 z"
       id="path1"
       inkscape:label=" + "
       sodipodi:nodetypes="ccscsscssccsscssscccsscsscsccccccsscccsscsss" /><path
       style="display:inline;fill:#61bdb6;fill-opacity:1;stroke:none;stroke-width:0.3175;stroke-dasharray:none;stroke-opacity:1"
       d="m 20.876715,3.2774841 c -0.07762,-0.01771 -0.164262,-0.05508 -0.220956,-0.09531 -0.0328,-0.02327 -0.325546,-0.309771 -0.75918,-0.742986 l -0.705788,-0.705105 -0.05093,0.03005 c -0.29587,0.174576 -0.646674,0.290545 -1.015446,0.335686 -0.121476,0.01487 -0.432919,0.0128 -0.56847,-0.0038 -0.26265,-0.03212 -0.515555,-0.101844 -0.748668,-0.206418 -0.360771,-0.161842 -0.708331,-0.433508 -0.949594,-0.742242 -0.310562,-0.397415 -0.481157,-0.814127 -0.538081,-1.314375 -0.01261,-0.110901 -0.01261,-0.413481 0,-0.524382 0.05692,-0.5002476 0.227519,-0.9169598 0.538081,-1.3143744 0.270814,-0.3465498 0.65111,-0.6278648 1.074675,-0.7949666 0.09596,-0.037859 0.308186,-0.099731 0.41449,-0.1208421 0.171774,-0.034114 0.307782,-0.046619 0.507034,-0.046619 0.27899,0 0.479834,0.028755 0.733323,0.1049914 0.317696,0.095546 0.572539,0.2285356 0.846266,0.4416245 0.347214,0.2702959 0.629068,0.6498641 0.79649,1.0726187 0.03793,0.095779 0.09992,0.3075953 0.121075,0.4136951 0.03475,0.1743294 0.04686,0.3068884 0.04657,0.5099774 -2.85e-4,0.239112 -0.01961,0.3993 -0.07391,0.614388 -0.05628,0.222881 -0.167588,0.493944 -0.276374,0.672989 l -0.0261,0.04295 0.710336,0.708407 c 0.54564,0.544157 0.719471,0.722092 0.749733,0.767432 0.02454,0.03677 0.04947,0.08842 0.06611,0.136966 0.02522,0.07357 0.02671,0.08386 0.02671,0.183599 0,0.09974 -0.0015,0.110028 -0.02671,0.183599 -0.03179,0.09275 -0.08025,0.168687 -0.150772,0.236273 -0.0702,0.06729 -0.133527,0.105765 -0.223145,0.135598 -0.06414,0.02135 -0.09161,0.02614 -0.163363,0.02849 -0.05505,0.0018 -0.103321,-0.0011 -0.133415,-0.0079 z m -2.853642,-1.953845 c 0.417034,-0.0398 0.791824,-0.220984 1.09502,-0.529367 0.125069,-0.12721 0.216243,-0.251367 0.295222,-0.402025 0.273524,-0.521767 0.273524,-1.121072 0,-1.6428389 -0.07898,-0.150658 -0.170153,-0.2748147 -0.295222,-0.402025 -0.224312,-0.2281492 -0.471561,-0.3781843 -0.768123,-0.4661112 -0.547924,-0.1624519 -1.151404,-0.042707 -1.601759,0.3178265 -0.06184,0.049507 -0.188266,0.1748851 -0.25036,0.248285 -0.542616,0.6414138 -0.542616,1.6054746 0,2.2468886 0.06209,0.0734 0.18852,0.198778 0.25036,0.248285 0.358683,0.287145 0.818602,0.424625 1.274862,0.381082 z"
       id="path1-1"
       inkscape:label=" + "
       sodipodi:nodetypes="csscsscssccssssssscccscssssccssccssssssssscs" /><path
       style="display:none;fill:#61bdb6;fill-opacity:1;stroke-width:0.0296093"
       d="m 6.5037832,7.0932262 c -0.07762,-0.01771 -0.164262,-0.05508 -0.220956,-0.09531 -0.0328,-0.02327 -0.325546,-0.309771 -0.75918,-0.742986 l -0.705788,-0.705105 -0.05093,0.03005 c -0.29587,0.174576 -0.646674,0.290545 -1.015446,0.335686 -0.121476,0.01487 -0.432919,0.0128 -0.568471,-0.0038 -0.262646,-0.03212 -0.515551,-0.101844 -0.748665,-0.206418 -0.360773,-0.161842 -0.708334,-0.433508 -0.949596,-0.742242 -0.310563,-0.397415 -0.481158,-0.814127 -0.538082,-1.314375 -0.01261,-0.110901 -0.01261,-0.413481 0,-0.524382 0.05692,-0.5002476 0.227519,-0.9169598 0.538082,-1.3143744 0.270814,-0.3465498 0.651109,-0.6278648 1.074675,-0.7949666 0.09596,-0.037859 0.308186,-0.099731 0.41449,-0.12084207 0.171774,-0.034114 0.307782,-0.046619 0.507034,-0.046619 0.27899,0 0.479834,0.028755 0.733323,0.1049914 0.317696,0.095546 0.572539,0.22853557 0.846266,0.44162447 0.347214,0.2702959 0.629068,0.6498641 0.79649,1.0726187 0.03793,0.095779 0.09992,0.3075953 0.121074,0.4136951 0.03475,0.1743294 0.04686,0.3068884 0.04657,0.5099774 -2.84e-4,0.239112 -0.0196,0.3993 -0.07391,0.614388 -0.05628,0.222881 -0.167588,0.493944 -0.276374,0.672989 l -0.0261,0.04295 0.710336,0.708407 c 0.54564,0.544157 0.719471,0.722092 0.749732,0.767432 0.02454,0.03677 0.04947,0.08842 0.06611,0.136966 0.02521,0.07357 0.02671,0.08386 0.02671,0.183599 0,0.09974 -0.0015,0.110028 -0.02671,0.183599 -0.03179,0.09275 -0.08026,0.168687 -0.150771,0.236273 -0.0702,0.06729 -0.133527,0.105765 -0.223146,0.135598 -0.06414,0.02135 -0.09161,0.02614 -0.163362,0.02849 -0.05505,0.0018 -0.103321,-0.0011 -0.133415,-0.0079 z m -2.853642,-1.953845 c 0.417034,-0.0398 0.791824,-0.220984 1.095019,-0.529367 0.12507,-0.12721 0.216244,-0.251367 0.295223,-0.402025 0.273524,-0.521767 0.273524,-1.121072 0,-1.6428389 -0.07898,-0.150658 -0.170153,-0.2748147 -0.295223,-0.402025 -0.224312,-0.2281492 -0.47156,-0.3781843 -0.768122,-0.4661112 -0.547924,-0.1624519 -1.151404,-0.042707 -1.601759,0.3178265 -0.06184,0.049507 -0.188266,0.1748851 -0.25036,0.248285 -0.542617,0.6414138 -0.542617,1.6054746 0,2.2468886 0.06209,0.0734 0.18852,0.198778 0.25036,0.248285 0.358683,0.287145 0.818602,0.424625 1.274862,0.381082 z m 0.224052,-1.360282 -1.023096,-0.0028 c -0.226476,-0.0027 -0.238623,-0.0036 -0.283658,-0.02128 -0.117257,-0.04596 -0.19387,-0.122562 -0.23932,-0.239278 -0.02625,-0.06743 -0.02625,-0.190852 0,-0.258278 0.04545,-0.116716 0.122063,-0.193314 0.23932,-0.239278 0.04504,-0.01765 0.05718,-0.01857 0.283658,-0.02128 l 1.023096,-0.0028 0.236608,0.0028 c 0.226476,0.0027 0.238622,0.0036 0.283657,0.02128 0.117259,0.04596 0.19387,0.122562 0.239322,0.239278 0.02625,0.06743 0.02625,0.190852 0,0.258278 -0.04545,0.116716 -0.122063,0.193314 -0.239322,0.239278 -0.04504,0.01765 -0.05718,0.01857 -0.283657,0.02128 z"
       id="path1-8"
       sodipodi:nodetypes="csscsscssccsssssssccsscsscscsssccssssssssccsccccccccccccccc"
       inkscape:label=" - " /><path
       d="M 3.4287574,4.2297799 C 3.3922416,4.223934 3.3298314,4.2017937 3.2969159,4.1830056 3.2379045,4.1493216 3.1963718,4.1033413 3.1670813,4.0392625 3.1518479,4.0059263 3.151096,3.9974165 3.1487722,3.8297624 l -0.00239,-0.1747506 -0.202152,-0.00207 c -0.193497,-0.002 -0.203875,-0.00267 -0.2423516,-0.015749 -0.1001811,-0.034009 -0.1656371,-0.090693 -0.2044683,-0.1770613 -0.022436,-0.049897 -0.022436,-0.1412271 0,-0.1911212 0.038831,-0.086368 0.1042872,-0.1430489 0.2044683,-0.1770615 0.038481,-0.013061 0.048853,-0.013741 0.2423493,-0.015747 l 0.202152,-0.00207 0.00239,-0.1747504 c 0.00231,-0.167268 0.00308,-0.1762388 0.018215,-0.2095002 0.039344,-0.086602 0.1049142,-0.1431852 0.2048244,-0.1767537 0.057713,-0.019395 0.1633714,-0.019395 0.2210893,0 0.099909,0.033566 0.1654781,0.090151 0.2048236,0.1767537 0.015114,0.033262 0.015891,0.042231 0.018215,0.2095002 l 0.00239,0.1747504 0.2021511,0.00207 c 0.1934955,0.002 0.2038719,0.00266 0.2423485,0.015747 0.1001828,0.03401 0.165637,0.090694 0.2044699,0.1770615 0.022427,0.049897 0.022427,0.1412272 0,0.1911212 -0.038831,0.086368 -0.1042871,0.143049 -0.2044699,0.1770616 -0.038481,0.013061 -0.048853,0.013741 -0.2423485,0.015747 l -0.2021511,0.00207 -0.00239,0.1747506 c -0.00231,0.1672678 -0.00316,0.1762386 -0.018215,0.2095001 -0.052356,0.1152456 -0.1624058,0.1857304 -0.2983286,0.1910783 -0.02963,0.00118 -0.061429,8.88e-4 -0.070631,-5.617e-4 z"
       style="display:inline;fill:#61bdb6;fill-opacity:1;stroke:none;stroke-width:0.252451;stroke-dasharray:none;stroke-opacity:1"
       id="path1-6" /></g></svg>
