<?xml version="1.0" encoding="UTF-8" standalone="no"?>
<!-- Created with Inkscape (http://www.inkscape.org/) -->

<svg
   width="30"
   height="30"
   viewBox="0 0 7.9374998 7.9375"
   version="1.1"
   id="svg1"
   xml:space="preserve"
   inkscape:version="1.4 (86a8ad7, 2024-10-11)"
   sodipodi:docname="ant.svg"
   xmlns:inkscape="http://www.inkscape.org/namespaces/inkscape"
   xmlns:sodipodi="http://sodipodi.sourceforge.net/DTD/sodipodi-0.dtd"
   xmlns="http://www.w3.org/2000/svg"
   xmlns:svg="http://www.w3.org/2000/svg"><sodipodi:namedview
     id="namedview1"
     pagecolor="#ffffff"
     bordercolor="#666666"
     borderopacity="1.0"
     inkscape:showpageshadow="2"
     inkscape:pageopacity="0.0"
     inkscape:pagecheckerboard="0"
     inkscape:deskcolor="#d1d1d1"
     inkscape:document-units="px"
     inkscape:zoom="12.186869"
     inkscape:cx="20.595939"
     inkscape:cy="29.909242"
     inkscape:window-width="1920"
     inkscape:window-height="1057"
     inkscape:window-x="-8"
     inkscape:window-y="-8"
     inkscape:window-maximized="1"
     inkscape:current-layer="layer1" /><defs
     id="defs1" /><g
     inkscape:label="Capa 1"
     inkscape:groupmode="layer"
     id="layer1"><path
       style="fill:#ffffff;stroke-width:0.153364;fill-opacity:1"
       d="M 0,5.2470443 V 2.5486363 H 0.50722004 1.0144388 V 1.3921765 0.2357156 H 1.2781934 1.5419469 V 1.3921767 2.5486363 H 1.8868565 2.2317658 V 1.5139091 0.47918081 H 2.5158091 2.799851 V 1.5139091 2.5486361 H 3.1447605 3.48967 V 1.6356416 0.72264602 H 3.7534235 4.0171783 V 1.6356416 2.5486363 h 0.3449095 0.344908 V 1.7776626 1.0066889 H 4.9910392 5.2750823 V 1.7776626 2.5486363 H 5.6199918 5.9649011 V 1.8993951 1.2501543 h 0.2637535 0.2637549 v 0.6492408 0.6492412 h 0.343696 0.3436976 l 0.011417,-0.5173637 0.011416,-0.5173634 0.2536102,-0.012081 0.25361,-0.012081 V 2.7901654 4.090584 H 7.4459819 7.182227 V 3.5833646 3.0761458 H 6.838349 6.4944696 l -0.011151,0.6390961 -0.011151,0.6390962 -0.2536087,0.01208 -0.25361,0.01208 V 3.7273222 3.0761446 H 5.6209341 5.2769206 l -0.01102,0.76083 -0.01102,0.7608287 -0.2738984,0.011948 -0.2738997,0.011948 V 3.8488717 3.0760438 H 4.3621778 4.0172685 V 3.9687499 4.8614574 H 3.7534261 3.4896725 V 3.9687498 3.0760438 H 3.14546 2.8012474 L 2.7903608,4.1006275 2.7794741,5.1252106 H 2.5157215 2.251968 L 2.2410824,4.1006272 2.2301969,3.0760438 H 1.8859843 1.5417718 v 1.156461 1.1564596 H 1.2780157 1.0142609 V 4.2325058 3.0760449 H 0.77079575 0.52733065 V 5.5106982 7.9453514 H 0.26375484 0 Z"
       id="path1" /></g></svg>
