<?xml version="1.0" encoding="UTF-8" standalone="no"?>
<svg
   xml:space="preserve"
   id="svg3852"
   x="0"
   y="0"
   version="1.1"
   viewBox="-250 452 72 72"
   sodipodi:docname="Plane.svg"
   inkscape:version="1.4 (86a8ad7, 2024-10-11)"
   xmlns:inkscape="http://www.inkscape.org/namespaces/inkscape"
   xmlns:sodipodi="http://sodipodi.sourceforge.net/DTD/sodipodi-0.dtd"
   xmlns="http://www.w3.org/2000/svg"
   xmlns:svg="http://www.w3.org/2000/svg"><defs
   id="defs1" /><sodipodi:namedview
   id="namedview1"
   pagecolor="#ffffff"
   bordercolor="#666666"
   borderopacity="1.0"
   inkscape:showpageshadow="2"
   inkscape:pageopacity="0.0"
   inkscape:pagecheckerboard="0"
   inkscape:deskcolor="#d1d1d1"
   inkscape:zoom="8"
   inkscape:cx="25.5"
   inkscape:cy="32.9375"
   inkscape:window-width="1920"
   inkscape:window-height="1057"
   inkscape:window-x="-8"
   inkscape:window-y="-8"
   inkscape:window-maximized="1"
   inkscape:current-layer="svg3852"
   showguides="true"><sodipodi:guide
     position="85.25,24.75"
     orientation="0,-1"
     id="guide1"
     inkscape:locked="false" /></sodipodi:namedview>
    <style
   id="style1">
        .st0{display:none}.st1{display:inline}.st2,.st3,.st4,.st5{fill:none;stroke:#eb008b;stroke-width:.25;stroke-linecap:round;stroke-linejoin:round;stroke-miterlimit:10}.st3,.st4,.st5{fill:#fff;stroke:#fff;stroke-width:1.5}.st4,.st5{fill:none;stroke-width:3.9}.st5{stroke-width:4.5}
    </style>
    
    
    
    
    
    
    
    
<path
   style="fill:#ffffff;fill-opacity:1;stroke:#ffffff;stroke-width:0.97;stroke-dasharray:none;stroke-opacity:1"
   d="m -203.47304,526.47475 c -0.14194,-0.0166 -0.14194,-0.02 -5.1e-4,-0.0367 0.14906,-0.0174 0.21681,-0.003 0.17555,0.0366 -0.011,0.01 -0.0895,0.01 -0.17552,9.7e-4 z m 24.26195,-27.16427 c -0.0702,-0.0308 -0.56473,-0.17855 -1.09866,-0.32863 -0.53393,-0.1501 -2.34097,-0.67084 -4.01565,-1.1572 -1.6747,-0.48641 -3.48057,-1.00824 -4.01308,-1.15968 -1.06523,-0.303 -5.57037,-1.60297 -6.48488,-1.87127 -0.31726,-0.0931 -0.94279,-0.27327 -1.39013,-0.40047 -0.44733,-0.12717 -1.10756,-0.31754 -1.46715,-0.42294 -1.33116,-0.3902 -3.77609,-1.09632 -5.00052,-1.44419 -0.69394,-0.19717 -1.27103,-0.36743 -1.28233,-0.37831 -0.0117,-0.011 -0.22715,-0.0733 -0.47962,-0.13854 -0.25245,-0.0655 -0.7527,-0.20551 -1.11164,-0.31151 -1.7713,-0.52332 -2.91045,-0.84514 -3.11498,-0.88002 -0.12445,-0.0212 -0.25231,-0.0638 -0.28414,-0.0944 -0.032,-0.0307 -0.0679,-0.0152 -0.08,0.0345 -0.0134,0.0547 -0.0306,0.0561 -0.0434,0.004 -0.0208,-0.0847 -0.90405,-0.40441 -0.96221,-0.34831 -0.0402,0.0389 -0.21992,1.8529 -0.74695,7.53707 -0.0883,0.95197 -0.32089,3.42547 -0.51702,5.49669 -0.1961,2.07119 -0.38834,4.12677 -0.42717,4.56797 -0.19619,2.22777 -0.53818,5.48313 -0.60056,5.71668 -0.0389,0.14537 -0.13763,0.38375 -0.21951,0.52964 l -0.14882,0.26534 0.735,0.68212 c 0.40424,0.37511 1.87437,1.71245 3.26699,2.9717 l 2.532,2.28963 10e-4,1.33697 c 0.001,0.73527 -0.0114,1.34955 -0.0275,1.36498 -0.016,0.0154 -1.57116,-0.59592 -3.45592,-1.35853 -1.88473,-0.76257 -3.39036,-1.47574 -3.40848,-1.45824 -0.0181,0.0175 -0.61471,0.0846 -1.58977,0.0923 -0.0364,4.2e-4 -4.9234,1.97384 -6.0368,2.43788 -0.30821,0.12845 -0.6214,0.25015 -0.69604,0.2704 -0.11572,0.0315 -0.13502,-0.1647 -0.13128,-1.33517 l 0.004,-1.372 2.97805,-2.69019 c 3.95812,-3.57549 3.57758,-3.19456 3.42247,-3.42633 -0.0702,-0.10506 -0.17271,-0.32195 -0.22749,-0.48193 -0.75615,-6.10825 -1.23991,-12.25677 -1.82148,-18.3855 l -0.48234,-5.06954 -0.59142,0.17354 c -0.32524,0.0954 -0.66191,0.19259 -0.74814,0.21589 -0.25132,0.0678 -1.44585,0.41147 -4.21168,1.21135 -7.05008,2.03892 -9.70658,2.80785 -11.61345,3.36154 -1.14504,0.33251 -3.35072,0.97011 -4.90148,1.41692 -1.55076,0.4468 -3.56506,1.02948 -4.47623,1.29487 -3.62978,1.05718 -4.2769,1.24079 -4.37298,1.24081 -0.0665,-9.6e-4 -0.0994,-0.6813 -0.0985,-2.03179 l 0.001,-2.03189 2.25049,-1.45015 c 1.23777,-0.79761 4.71032,-3.03946 7.71679,-4.98186 3.00652,-1.94237 7.79278,-5.03353 10.6362,-6.86919 4.95189,-3.19685 8.69276,-5.62042 8.9356,-5.78905 0.0861,-0.0602 0.0773,-0.46817 -0.0373,-1.67518 -0.45539,-4.80264 -0.46835,-7.32157 -0.0545,-10.60047 0.40933,-3.24398 1.30944,-6.27489 2.45235,-8.25785 l 0.20934,-0.36325 -0.30063,-0.015 -0.1092,-0.0852 0.13898,0.0509 c 0,0 0.34229,-0.037 0.5112,-0.28076 0.0996,-0.14336 0.42647,-0.48103 0.7268,-0.75001 0.44079,-0.39473 0.61174,-0.50976 0.88701,-0.59569 0.56016,-0.17492 0.8059,-0.19294 1.27609,-0.0935 1.36685,0.28922 2.44719,1.68009 3.52795,4.54198 0.5219,1.382 0.97079,3.2184 1.25634,5.13957 0.52723,3.54706 0.528,6.50285 0.003,11.79908 -0.0582,0.5883 -0.0736,1.10355 -0.0337,1.14503 0.0394,0.0417 2.31744,1.52306 5.06162,3.29237 2.74417,1.76935 7.46311,4.81417 10.48661,6.76633 3.02347,1.95212 5.89261,3.79922 6.37582,4.10465 0.48322,0.3054 0.94376,0.60131 1.02337,0.65748 0.0796,0.0562 1.60259,1.04362 3.38434,2.1943 l 3.23955,2.09207 5.4e-4,2.07218 c 4.7e-4,1.70819 -0.0219,2.06238 -0.12733,2.01641 z m -34.27627,27.17242 c -0.11189,-0.01 -0.14257,0.0136 -0.15811,0.12541 -0.011,0.0759 -0.0264,0.0255 -0.0341,-0.11095 -0.008,-0.13681 -0.003,-0.26018 0.0115,-0.27419 0.0144,-0.0141 0.0264,0.0264 0.0263,0.0895 -8.7e-4,0.0885 0.0397,0.1166 0.17332,0.12305 0.0953,0.004 0.16128,0.0199 0.14659,0.0342 -0.0148,0.0143 -0.0892,0.0202 -0.16559,0.0119 z m -4.93995,-35.69502 -0.25955,-0.0157 0.25957,-0.0147 c 0.14275,-0.008 0.26689,-0.01 0.27586,-6.8e-4 0.0392,0.0379 -0.0334,0.0462 -0.27584,0.0316 z"
   id="path1"
   sodipodi:nodetypes="ccscccsccsssssscssccsssccccccccscscsccccssccccccccsscccccccccccsccccscscssscscscccscscsscccccscc" /></svg>
