<?xml version="1.0" encoding="UTF-8" standalone="no"?>
<svg
   xml:space="preserve"
   id="svg3852"
   x="0"
   y="0"
   version="1.1"
   viewBox="-250 452 30 30"
   sodipodi:docname="Plane.svg"
   inkscape:version="1.4 (86a8ad7, 2024-10-11)"
   width="30"
   height="30"
   xmlns:inkscape="http://www.inkscape.org/namespaces/inkscape"
   xmlns:sodipodi="http://sodipodi.sourceforge.net/DTD/sodipodi-0.dtd"
   xmlns="http://www.w3.org/2000/svg"
   xmlns:svg="http://www.w3.org/2000/svg"><defs
   id="defs1" /><sodipodi:namedview
   id="namedview1"
   pagecolor="#ffffff"
   bordercolor="#666666"
   borderopacity="1.0"
   inkscape:showpageshadow="2"
   inkscape:pageopacity="0.0"
   inkscape:pagecheckerboard="0"
   inkscape:deskcolor="#d1d1d1"
   inkscape:zoom="16"
   inkscape:cx="18.125"
   inkscape:cy="21.28125"
   inkscape:window-width="1920"
   inkscape:window-height="1057"
   inkscape:window-x="-8"
   inkscape:window-y="-8"
   inkscape:window-maximized="1"
   inkscape:current-layer="svg3852"
   showguides="true"><sodipodi:guide
     position="85.25,24.75"
     orientation="0,-1"
     id="guide1"
     inkscape:locked="false" /></sodipodi:namedview>
    <style
   id="style1">
        .st0{display:none}.st1{display:inline}.st2,.st3,.st4,.st5{fill:none;stroke:#eb008b;stroke-width:.25;stroke-linecap:round;stroke-linejoin:round;stroke-miterlimit:10}.st3,.st4,.st5{fill:#fff;stroke:#fff;stroke-width:1.5}.st4,.st5{fill:none;stroke-width:3.9}.st5{stroke-width:4.5}
    </style>
    
    
    
    
    
    
    
    
<path
   style="fill:#ffffff;fill-opacity:1;stroke:#ffffff;stroke-width:0.394936;stroke-dasharray:none;stroke-opacity:1"
   d="m -230.76827,482.53387 c -0.0578,-0.006 -0.0578,-0.008 -2.1e-4,-0.015 0.0607,-0.007 0.0883,-0.002 0.0715,0.015 -0.005,0.004 -0.0364,0.004 -0.0715,4e-4 z m 9.87828,-11.05996 c -0.0285,-0.0125 -0.22993,-0.0727 -0.44732,-0.13381 -0.21738,-0.0611 -0.95313,-0.27312 -1.63497,-0.47115 -0.68186,-0.19804 -1.41713,-0.41051 -1.63393,-0.47216 -0.43371,-0.12337 -2.26798,-0.65265 -2.64033,-0.76189 -0.12918,-0.0379 -0.38386,-0.11127 -0.56599,-0.16306 -0.18214,-0.0518 -0.45095,-0.12928 -0.59736,-0.1722 -0.54198,-0.15886 -1.53744,-0.44636 -2.03597,-0.588 -0.28253,-0.0803 -0.51749,-0.1496 -0.52209,-0.15403 -0.005,-0.005 -0.0925,-0.0298 -0.19528,-0.0564 -0.10279,-0.0267 -0.30647,-0.0837 -0.45261,-0.12683 -0.72118,-0.21307 -1.18499,-0.34411 -1.26826,-0.3583 -0.0506,-0.009 -0.10274,-0.026 -0.1157,-0.0384 -0.013,-0.0125 -0.0277,-0.006 -0.0326,0.0141 -0.006,0.0223 -0.0125,0.0228 -0.0177,0.002 -0.009,-0.0345 -0.36809,-0.16466 -0.39177,-0.14182 -0.0164,0.0158 -0.0895,0.75441 -0.30412,3.06873 -0.0359,0.38759 -0.13065,1.39468 -0.21051,2.23799 -0.0798,0.84328 -0.15811,1.68022 -0.17392,1.85985 -0.0799,0.90704 -0.21912,2.23246 -0.24452,2.32755 -0.0158,0.0592 -0.056,0.15624 -0.0894,0.21564 l -0.0605,0.10804 0.29926,0.27772 c 0.16458,0.15273 0.76315,0.69723 1.33016,1.20993 l 1.03091,0.93223 4e-4,0.54435 c 4.1e-4,0.29937 -0.005,0.54947 -0.0112,0.55575 -0.006,0.006 -0.63969,-0.24263 -1.40708,-0.55312 -0.76736,-0.31048 -1.38039,-0.60085 -1.38776,-0.59372 -0.007,0.007 -0.25029,0.0345 -0.64728,0.0376 -0.0148,1.7e-4 -2.00457,0.80365 -2.45789,0.99259 -0.12549,0.0523 -0.253,0.10184 -0.28339,0.11008 -0.0471,0.0129 -0.0549,-0.067 -0.0535,-0.54361 l 0.002,-0.55861 1.21251,-1.09531 c 1.61156,-1.45577 1.45661,-1.30067 1.39346,-1.39504 -0.0285,-0.0428 -0.0704,-0.13108 -0.0926,-0.19622 -0.30787,-2.48697 -0.50483,-4.99035 -0.74162,-7.48567 l -0.19639,-2.06407 -0.2408,0.0707 c -0.13241,0.0388 -0.26949,0.0784 -0.3046,0.0879 -0.10232,0.0276 -0.58868,0.16752 -1.71479,0.49319 -2.87044,0.83015 -3.95204,1.14322 -4.72843,1.36866 -0.4662,0.13538 -1.36424,0.39498 -1.99564,0.5769 -0.63139,0.18192 -1.45152,0.41915 -1.8225,0.52721 -1.47787,0.43042 -1.74135,0.50519 -1.78046,0.50519 -0.0271,-3.8e-4 -0.0405,-0.27739 -0.0401,-0.82724 l 4.1e-4,-0.82729 0.91629,-0.59043 c 0.50395,-0.32475 1.9178,-1.23752 3.14189,-2.02837 1.22411,-0.79084 3.17284,-2.0494 4.33055,-2.79679 2.01616,-1.30161 3.53927,-2.28837 3.63814,-2.35702 0.0351,-0.0245 0.0314,-0.19062 -0.0152,-0.68205 -0.18541,-1.9554 -0.19069,-2.98099 -0.0222,-4.31599 0.16666,-1.32079 0.53314,-2.55484 0.99847,-3.36221 l 0.0852,-0.14789 -0.12241,-0.006 -0.0445,-0.0346 0.0566,0.0207 c 0,0 0.13937,-0.015 0.20814,-0.11431 0.0405,-0.0584 0.17364,-0.19586 0.29592,-0.30537 0.17947,-0.16072 0.24907,-0.20755 0.36114,-0.24254 0.22808,-0.0712 0.32813,-0.0785 0.51957,-0.0381 0.55651,0.11775 0.99637,0.68404 1.43641,1.84926 0.21249,0.56269 0.39525,1.31038 0.51152,2.09259 0.21465,1.44419 0.21497,2.64764 0.002,4.80401 -0.0237,0.23952 -0.03,0.44931 -0.0138,0.4662 0.0161,0.017 0.94355,0.62011 2.06084,1.34049 1.1173,0.7204 3.03862,1.9601 4.26964,2.75492 1.23101,0.7948 2.39918,1.54685 2.59592,1.67121 0.19674,0.12435 0.38425,0.24482 0.41667,0.26769 0.0324,0.0229 0.65249,0.42491 1.37794,0.89342 l 1.31898,0.85179 2.2e-4,0.84369 c 2e-4,0.69549 -0.009,0.8397 -0.0519,0.82098 z m -13.95563,11.06328 c -0.0456,-0.004 -0.058,0.006 -0.0644,0.051 -0.005,0.031 -0.0108,0.0104 -0.0138,-0.0452 -0.003,-0.0557 -0.002,-0.10594 0.005,-0.11164 0.006,-0.006 0.0108,0.0108 0.0107,0.0364 -3.5e-4,0.036 0.0162,0.0474 0.0706,0.0501 0.0388,0.002 0.0656,0.008 0.0597,0.0139 -0.006,0.006 -0.0363,0.008 -0.0674,0.005 z m -2.0113,-14.53327 -0.10567,-0.006 0.10568,-0.006 c 0.0581,-0.003 0.10867,-0.004 0.11232,-2.7e-4 0.0159,0.0154 -0.0136,0.0188 -0.11231,0.0129 z"
   id="path1"
   sodipodi:nodetypes="ccscccsccsssssscssccsssccccccccscscsccccssccccccccsscccccccccccsccccscscssscscscccscscsscccccscc" /></svg>
