<?xml version="1.0" encoding="UTF-8" standalone="no"?>
<!-- Created with Inkscape (http://www.inkscape.org/) -->

<svg
   width="30"
   height="30"
   viewBox="0 0 7.9374998 7.9375"
   version="1.1"
   id="svg1"
   xml:space="preserve"
   inkscape:version="1.4 (86a8ad7, 2024-10-11)"
   sodipodi:docname="plane_ico.svg"
   xmlns:inkscape="http://www.inkscape.org/namespaces/inkscape"
   xmlns:sodipodi="http://sodipodi.sourceforge.net/DTD/sodipodi-0.dtd"
   xmlns="http://www.w3.org/2000/svg"
   xmlns:svg="http://www.w3.org/2000/svg"><sodipodi:namedview
     id="namedview1"
     pagecolor="#ffffff"
     bordercolor="#666666"
     borderopacity="1.0"
     inkscape:showpageshadow="2"
     inkscape:pageopacity="0.0"
     inkscape:pagecheckerboard="0"
     inkscape:deskcolor="#d1d1d1"
     inkscape:document-units="px"
     inkscape:zoom="12.186869"
     inkscape:cx="19.529217"
     inkscape:cy="22.606299"
     inkscape:window-width="1920"
     inkscape:window-height="1057"
     inkscape:window-x="-8"
     inkscape:window-y="-8"
     inkscape:window-maximized="1"
     inkscape:current-layer="layer1" /><defs
     id="defs1" /><g
     inkscape:label="Capa 1"
     inkscape:groupmode="layer"
     id="layer1"><path
       style="fill:#ffffff;stroke-width:0.153364;fill-opacity:1"
       d="M 0,5.2470443 V 2.5486363 H 0.50722004 1.0144388 V 1.3921765 0.2357156 H 1.2781934 1.5419469 V 1.3921767 2.5486363 H 1.8868565 2.2317658 V 1.5139091 0.47918081 H 2.5158091 2.799851 V 1.5139091 2.5486361 H 3.1447605 3.48967 V 1.6356416 0.72264602 H 3.7534235 4.0171783 V 1.6356416 2.5486363 h 0.3449095 0.344908 V 1.7776626 1.0066889 H 4.9910392 5.2750823 V 1.7776626 2.5486363 H 5.6199918 5.9649011 V 1.8993951 1.2501543 h 0.2637535 0.2637549 v 0.6492408 0.6492412 h 0.343696 0.3436976 l 0.011417,-0.5173637 0.011416,-0.5173634 0.2536102,-0.012081 0.25361,-0.012081 V 2.7901654 4.090584 H 7.4459819 7.182227 V 3.5833646 3.0761458 H 6.838349 6.4944696 l -0.011151,0.6390961 -0.011151,0.6390962 -0.2536087,0.01208 -0.25361,0.01208 V 3.7273222 3.0761446 H 5.6209341 5.2769206 l -0.01102,0.76083 -0.01102,0.7608287 -0.2738984,0.011948 -0.2738997,0.011948 V 3.8488717 3.0760438 H 4.3621778 4.0172685 V 3.9687499 4.8614574 H 3.7534261 3.4896725 V 3.9687498 3.0760438 H 3.14546 2.8012474 L 2.7903608,4.1006275 2.7794741,5.1252106 H 2.5157215 2.251968 L 2.2410824,4.1006272 2.2301969,3.0760438 H 1.8859843 1.5417718 v 1.156461 1.1564596 H 1.2780157 1.0142609 V 4.2325058 3.0760449 H 0.77079575 0.52733065 V 5.5106982 7.9453514 H 0.26375484 0 Z"
       id="path1" /><g
       id="g4"
       transform="matrix(0.10332148,0,0,0.142187,-0.23017498,-1.5113711)"><path
         style="display:inline;fill:#ff0000;fill-opacity:1;stroke:#ffffff;stroke-width:0.491;stroke-dasharray:none;stroke-opacity:1"
         d="m 52.268316,66.098572 c -0.405442,-0.09197 -1.487014,-0.309243 -2.403495,-0.48284 -5.672125,-1.074379 -8.017459,-1.504883 -8.198446,-1.504883 -0.180969,0 -0.217401,0.06766 -0.305249,0.566864 -0.25263,1.435582 -1.101971,1.412195 -1.401078,-0.03861 -0.08153,-0.395459 -0.158579,-0.569667 -0.248061,-0.560888 -0.344737,0.03383 -2.535705,0.431014 -3.667012,0.664776 -1.050716,0.21711 -3.681733,0.709092 -4.580244,0.856473 -0.124708,0.02045 -0.716512,0.138131 -1.315118,0.261495 -1.723631,0.355227 -1.940544,0.375404 -2.012746,0.187256 -0.08766,-0.22843 0.118738,-3.099754 0.25009,-3.479254 0.06043,-0.174591 0.19605,-0.41503 0.301379,-0.534303 0.17887,-0.202553 1.919978,-1.098257 2.134844,-1.098257 0.05355,0 0.09736,-0.04084 0.09736,-0.0907 0,-0.04988 0.04284,-0.0907 0.0952,-0.0907 0.05235,0 0.539311,-0.220492 1.082116,-0.489982 0.542808,-0.269489 1.010147,-0.466754 1.03853,-0.438372 0.02838,0.02841 0.05161,0.0038 0.05161,-0.05421 0,-0.05823 0.04958,-0.105812 0.110185,-0.105812 0.0606,0 0.439683,-0.160977 0.842406,-0.357732 0.767388,-0.374906 1.1246,-0.525416 1.259367,-0.530633 0.04431,-0.0019 0.105526,-0.03759 0.136048,-0.07965 0.03052,-0.04211 0.64729,-0.35782 1.370607,-0.701631 1.847047,-0.877949 2.74781,-1.326617 2.879659,-1.434353 0.08138,-0.0665 0.113369,-0.469939 0.113369,-1.429772 0,-1.231093 0.01548,-1.356801 0.195094,-1.585155 0.193648,-0.246179 0.194634,-0.269967 0.133079,-3.20933 -0.0341,-1.628719 -0.08422,-3.287819 -0.111359,-3.686897 -0.130464,-1.918333 -1.691582,-4.665541 -3.280755,-5.773369 -0.66798,-0.465658 -1.999131,-1.06867 -2.695372,-1.221008 -0.639303,-0.139881 -2.266465,-0.341298 -3.945359,-0.488371 -1.072502,-0.09396 -3.562159,-0.333656 -5.532569,-0.532674 -1.970412,-0.199016 -4.500882,-0.446533 -5.623268,-0.550038 -1.12239,-0.103479 -2.63251,-0.249574 -3.355824,-0.324632 -0.723318,-0.07506 -1.968144,-0.19732 -2.766286,-0.271699 -0.798142,-0.07438 -1.900122,-0.183846 -2.448843,-0.243263 -0.5487222,-0.05942 -2.1320452,-0.110317 -3.5184972,-0.113112 -2.446354,-0.0049 -2.521882,-0.01044 -2.55666,-0.186478 -0.07579,-0.383589 -0.142324,-3.505509 -0.07383,-3.463978 0.03973,0.0241 0.07525,-0.268239 0.07896,-0.649608 0.0088,-0.902884 0.171056,-1.233184 1.018101,-2.072025 1.045651,-1.03552 2.037955,-1.614926 3.226938,-1.88421 0.523449,-0.118552 2.8094502,-0.306245 6.0877902,-0.499843 6.181576,-0.365045 8.070722,-0.650046 8.271944,-0.663556 0.302145,-0.02029 1.927495,-0.09002 1.986499,-0.09243 0.339552,-0.01385 7.549968,-0.401911 8.198568,-0.529129 1.542229,-0.3025 2.580407,-1.505517 3.118676,-3.613854 0.24821,-0.972211 0.652458,-2.94464 1.003777,-4.897684 0.35357,-1.96556 1.052494,-4.308332 1.502564,-5.036562 0.306092,-0.49527 0.758945,-0.831848 1.265336,-0.940449 0.59023,-0.126584 0.606607,-0.126099 1.144799,0.03373 0.575526,0.170913 1.138112,0.719845 1.485204,1.449158 0.614652,1.291517 1.218307,3.768791 1.813396,7.441808 0.244988,1.51212 0.481131,2.361261 0.908018,3.265123 0.744896,1.57719 1.612401,2.185746 3.358264,2.355831 1.857816,0.18099 4.512824,0.286042 6.224863,0.383078 l 1.738734,0.09855 c 0.924274,0.07748 2.042258,0.199756 3.080471,0.266154 0.24074,0.0154 0.462427,0.05456 2.288518,0.162408 0.473896,0.02799 1.739136,0.109867 2.811636,0.18195 1.072505,0.07208 2.643842,0.173374 3.491868,0.225091 4.385985,0.267476 5.04434,0.413045 6.580383,1.454999 0.65028,0.441101 1.48237,1.342254 1.73936,1.883705 0.18857,0.397297 0.2041,0.574475 0.23477,2.676746 0.018,1.238208 0.01,2.342179 -0.0178,2.45327 l -0.0507,0.201978 -2.33833,-0.02055 c -1.464279,-0.01287 -2.796005,0.02553 -3.562746,0.102738 -0.673435,0.06781 -2.55088,0.24829 -4.172106,0.401074 -1.621227,0.152785 -3.498672,0.338714 -4.172101,0.41317 -0.673434,0.07446 -1.877445,0.196393 -2.675588,0.270968 -2.113883,0.197512 -2.413354,0.226859 -3.763963,0.368875 -1.273809,0.133937 -3.696987,0.367806 -4.716291,0.455182 -1.543394,0.132306 -3.821759,0.421313 -4.336707,0.550112 -1.754923,0.438933 -3.12375,1.324396 -4.18452,2.70686 -0.422822,0.551058 -1.289706,2.262769 -1.491297,2.944657 -0.0801,0.270942 -0.145636,0.745514 -0.145636,1.054598 0,0.391031 -0.04174,0.596609 -0.137231,0.675855 -0.207307,0.172049 -0.180359,6.339957 0.02837,6.492582 0.111717,0.08169 0.147367,0.388916 0.181148,1.560984 l 0.04206,1.459281 0.282944,0.133258 c 0.155621,0.07329 0.7319,0.345199 1.280622,0.604241 1.636413,0.772526 2.395057,1.129887 3.446518,1.623475 3.923682,1.841903 5.887426,2.800009 6.083397,2.968064 0.402951,0.34555 0.592188,1.096823 0.649066,2.576809 0.04886,1.270974 0.0073,1.820924 -0.13592,1.797372 -0.03644,-0.0057 -0.39802,-0.08615 -0.803462,-0.178121 z"
         id="path1-4"
         sodipodi:nodetypes="scsssssssssssssscsssccsssssssssscsssccccsssssssssssssssscsssssscccsssssssssssssscssssscss" /><rect
         style="opacity:1;fill:#000d17;fill-opacity:1;fill-rule:evenodd;stroke:none;stroke-width:0.491;stroke-linecap:round;stroke-linejoin:round;stroke-miterlimit:3.4;stroke-dasharray:none;stroke-dashoffset:3.73356;stroke-opacity:1;paint-order:stroke fill markers"
         id="rect1"
         width="19.442251"
         height="2.1972406"
         x="16.297222"
         y="33.334251"
         transform="rotate(5.5782052)" /><rect
         style="opacity:1;fill:#000d17;fill-opacity:1;fill-rule:evenodd;stroke:none;stroke-width:0.491;stroke-linecap:round;stroke-linejoin:round;stroke-miterlimit:3.4;stroke-dasharray:none;stroke-dashoffset:3.73356;stroke-opacity:1;paint-order:stroke fill markers"
         id="rect1-8"
         width="19.442251"
         height="2.1972406"
         x="44.866241"
         y="41.218697"
         transform="rotate(-5.5836637)" /><path
         id="rect1-8-4"
         style="opacity:1;fill:#000d17;fill-opacity:1;fill-rule:evenodd;stroke:none;stroke-width:0.315262;stroke-linecap:round;stroke-linejoin:round;stroke-miterlimit:3.4;stroke-dashoffset:3.73356;paint-order:stroke fill markers"
         d="M 30.104043,63.268305 39.51859,61.71624 39.49863,63.615148 29.8376,65.478602 Z"
         sodipodi:nodetypes="ccccc" /><path
         id="rect1-8-4-5"
         style="opacity:1;fill:#000d17;fill-opacity:1;fill-rule:evenodd;stroke:none;stroke-width:0.315262;stroke-linecap:round;stroke-linejoin:round;stroke-miterlimit:3.4;stroke-dashoffset:3.73356;paint-order:stroke fill markers"
         d="m 51.094515,63.216418 -9.29688,-1.562354 0.0059,1.998819 9.345653,1.773408 z"
         sodipodi:nodetypes="ccccc" /></g></g></svg>
